<?xml version="1.0" standalone="no"?>
<!DOCTYPE svg PUBLIC "-//W3C//DTD SVG 1.1//EN" "http://www.w3.org/Graphics/SVG/1.1/DTD/svg11.dtd" >
<svg xmlns="http://www.w3.org/2000/svg">
<metadata>Generated by IcoMoon</metadata>
<defs>
<font id="telenor-icon" horiz-adv-x="1024">
<font-face units-per-em="1024" ascent="960" descent="-64" />
<missing-glyph horiz-adv-x="1024" />
<glyph unicode="&#x20;" horiz-adv-x="512" d="" />
<glyph unicode="&#xe900;" glyph-name="Camera" horiz-adv-x="1820" d="M1329.399 750.364h-185.647c0 51.2-41.624 92.824-92.824 92.824h-280.462c-51.2 0-92.824-41.624-92.824-92.824h-186.596c-51.2 0-92.824-41.624-92.824-92.824v-512c0-51.2 41.624-92.824 92.824-92.824h838.353c51.2 0 92.824 41.624 92.824 92.824v512c1.043 51.295-40.581 92.824-92.824 92.824zM910.222 145.636c-154.643 0-279.514 124.776-279.514 279.514s124.871 279.419 279.514 279.419 279.419-124.776 279.419-279.514-124.776-279.419-279.419-279.419zM910.222 610.702c-102.4 0-186.69-83.247-186.69-186.69 0-102.4 83.247-186.69 186.69-186.69 102.4 0 186.69 83.153 186.69 186.69 0 103.443-83.247 186.69-186.69 186.69z" />
<glyph unicode="&#xe901;" glyph-name="Music" d="M377.6 790.4v-605.867c-24.533 8.533-53.333 11.733-85.333 8.533-93.867-9.6-169.6-74.667-169.6-144s75.733-118.4 169.6-107.733c93.867 9.6 169.6 74.667 169.6 144v563.2l340.267 113.067v-449.067c-25.6 8.533-53.333 11.733-85.333 8.533-93.867-9.6-169.6-74.667-169.6-144s75.733-118.4 169.6-107.733c93.867 9.6 169.6 74.667 169.6 144v746.667l-508.8-169.6z" />
<glyph unicode="&#xe902;" glyph-name="Person" d="M299.733 745.6c0-118.4 96-214.4 214.4-214.4s214.4 96 214.4 214.4c0 118.4-96 214.4-214.4 214.4s-214.4-96-214.4-214.4zM709.333 501.333l-195.2-292.267-194.133 292.267c-138.667-44.8-234.667-134.4-234.667-238.933v-214.4c0-58.667 192-107.733 428.8-107.733s428.8 48 428.8 107.733v214.4c1.067 104.533-94.933 194.133-233.6 238.933z" />
<glyph unicode="&#xe903;" glyph-name="Search" horiz-adv-x="1820" d="M1053.203 422.4c33.090 53.286 52.243 116.243 52.243 183.467 0 196.267-157.867 354.133-354.133 354.133-195.224 0-353.090-157.867-353.090-354.133 0-195.224 157.867-354.133 353.090-354.133 67.224 0 130.086 19.153 183.467 52.243l365.89-365.89 119.467 118.424-366.933 365.89zM752.356 330.619c-152.557 1.043-275.153 123.733-275.153 275.153s123.733 275.342 275.153 275.342 275.153-122.69 275.153-275.153c0.095-151.514-122.596-275.342-275.153-275.342z" />
<glyph unicode="&#xe904;" glyph-name="G" d="M520.781-68.762c-280.115 0-507.981 227.891-507.981 507.981s227.866 507.981 507.981 507.981 507.981-227.866 507.981-507.981-227.891-507.981-507.981-507.981zM520.781 921.6c-265.984 0-482.381-216.397-482.381-482.381s216.397-482.381 482.381-482.381c265.984 0 482.381 216.397 482.381 482.381s-216.422 482.381-482.381 482.381zM512.589 696.269c-119.834 0-217.011-97.178-217.011-217.062 0-119.834 217.011-313.114 217.011-313.114s217.011 193.306 217.011 313.139c0 119.859-97.178 217.037-217.011 217.037zM498.15 439.603h-19.072v-29.926c0-1.613-5.325-1.613-9.421-1.613-4.122 0-10.061 0-10.061 1.613v29.926h-64.589c-1.024 0-1.229 1.843-1.229 6.144 0 4.506 0.205 5.734 1.024 6.989l67.046 105.779c1.024 1.434 5.12 1.434 9.037 1.434 3.891 0 8.192 0 8.192-1.434v-101.683h19.072c1.638 0 1.638-4.506 1.638-8.627 0-4.096 0-8.602-1.638-8.602zM631.424 451.072c0-29.338-19.686-45.338-54.118-45.338-34.842 0-54.349 16-54.349 42.445v69.299c0 32.794 22.528 44.493 53.734 44.493 14.95 0 30.746-3.686 41.6-8.832 2.253-1.024-4.301-17.818-6.758-16.794-10.88 4.915-24.013 8.192-34.048 8.192-15.565 0-34.253-6.554-34.253-27.469v-64.589c0-21.325 16-29.491 34.253-29.491 19.046 0 33.818 7.782 33.818 29.107v21.939h-28.698c-1.613 0-1.613 4.506-1.613 8.806 0 4.096 0 8.832 1.613 8.832h48.794v-40.602zM459.571 456.832v67.456l-42.445-67.456z" />
<glyph unicode="&#xe905;" glyph-name="Zoom" horiz-adv-x="1820" d="M1049.979 422.4c33.090 53.286 52.243 116.243 52.243 183.467 0 195.224-157.867 354.133-354.133 354.133-195.224 0-354.133-158.91-354.133-354.133s158.91-354.133 354.133-354.133c67.224 0 130.086 19.153 183.467 52.243l366.933-366.933 118.424 118.424-366.933 366.933zM748.089 330.619c-152.557 0-275.153 123.733-275.153 275.153 0 152.557 123.733 275.153 275.153 275.153s275.153-123.733 275.153-275.153-122.596-275.153-275.153-275.153zM787.532 763.733h-78.886v-118.424h-117.381v-78.886h117.381v-117.381h78.886v117.381h118.424v78.886h-118.424z" />
<glyph unicode="&#xe906;" glyph-name="ZoomOut" horiz-adv-x="1820" d="M1054.246 421.357c33.090 53.286 52.243 116.243 52.243 184.51 0 195.224-157.867 354.133-354.133 354.133-195.224 0-354.133-158.91-354.133-354.133s158.91-354.133 354.133-354.133c67.224 0 130.086 19.153 184.51 52.243l366.933-366.933 117.381 117.381-366.933 366.933zM752.356 330.619c-152.557 0-275.153 122.69-275.153 275.153s123.733 275.342 275.153 275.342c152.557 0 275.153-122.69 275.153-275.153s-122.596-275.342-275.153-275.342zM791.799 566.424h118.424v78.886h-314.69v-78.886h117.381z" />
<glyph unicode="&#xe907;" glyph-name="Chart" d="M0 800v-558.933l279.467 279.467 279.467-279.467 465.067 466.133v92.8zM279.467 427.733l-279.467-279.467v-92.8h1024v558.933l-465.067-466.133z" />
<glyph unicode="&#xe908;" glyph-name="Sport" d="M236.8 515.2c5.333 33.067 11.733 65.067 19.2 94.933-7.467 3.2-16 6.4-23.467 9.6-49.067 25.6-86.4 77.867-113.067 156.8-53.333-64-91.733-141.867-108.8-227.2 11.733-20.267 108.8-24.533 226.133-34.133zM278.4 680.533c55.467 144 145.067 230.4 214.4 279.467-120.533-5.333-230.4-51.2-315.733-125.867 20.267-72.533 54.4-130.133 89.6-149.333 4.267-2.133 8.533-3.2 11.733-4.267zM896 311.467c-92.8 0-222.933 14.933-382.933 70.4-65.067 22.4-139.733 38.4-212.267 49.067-3.2-34.133-4.267-66.133-4.267-96 58.667-20.267 116.267-64 180.267-112 97.067-72.533 205.867-153.6 345.6-185.6 91.733 69.333 160 168.533 188.8 283.733-26.667-5.333-65.067-9.6-115.2-9.6zM540.8 651.733c-77.867-26.667-148.267-50.133-211.2-52.267-8.533-27.733-14.933-58.667-19.2-91.733 76.8-8.533 156.8-22.4 227.2-46.933 268.8-93.867 446.933-67.2 488.533-58.667 1.067 14.933 2.133 29.867 2.133 44.8 0 101.333-29.867 195.2-80 274.133-152.533 17.067-288-28.8-407.467-69.333zM433.067 163.2c-50.133 38.4-94.933 71.467-134.4 90.667 11.733-206.933 75.733-298.667 76.8-299.733s1.067-2.133 1.067-2.133c43.733-12.8 90.667-19.2 138.667-19.2 80 0 155.733 19.2 222.933 51.2-123.733 43.733-222.933 117.333-305.067 179.2zM625.067 948.267c-9.6-3.2-179.2-65.067-268.8-273.067 45.867 6.4 99.2 24.533 160 45.867 104.533 35.2 230.4 77.867 372.267 77.867-69.333 73.6-160 126.933-263.467 149.333 1.067 0 1.067 0 0 0zM224 273.067c-3.2 0-6.4 0-9.6 0-38.4-7.467-82.133-49.067-122.667-113.067 0-1.067-1.067-1.067-1.067-2.133 46.933-69.333 109.867-125.867 184.533-165.333-22.4 58.667-46.933 150.4-51.2 280.533zM200.533 344.533c7.467 1.067 14.933 1.067 22.4 2.133 1.067 29.867 2.133 61.867 5.333 94.933-118.4 13.867-225.067 18.133-226.133 18.133v0c0-4.267-1.067-8.533-1.067-12.8 0-77.867 18.133-151.467 49.067-218.667 46.933 68.267 97.067 106.667 150.4 116.267z" />
<glyph unicode="&#xe909;" glyph-name="Global" horiz-adv-x="1820" d="M909.179 960c-281.6 0-510.957-229.357-510.957-510.957s229.357-510.957 510.957-510.957 510.957 229.357 510.957 510.957-229.357 510.957-510.957 510.957zM1220.646 776.533c2.086-2.086 5.31-5.31 7.49-7.49 44.753-44.753 81.067-100.314 103.443-158.91-14.981-14.886-33.090-27.686-52.243-39.443-17.067 67.224-43.71 130.086-82.11 186.69 8.439 6.353 15.929 12.8 23.419 19.153zM1231.265 543.953c-38.4-16.024-78.886-29.867-123.733-38.4-7.49 64-19.153 128-36.219 189.819 29.867 7.49 56.51 18.11 82.11 32.047 37.357-54.329 62.957-116.243 77.843-183.467zM1179.022 811.71c-4.267-4.267-9.576-7.49-13.843-10.619-13.843 16.024-27.686 32.047-42.667 46.933 19.153-10.714 38.4-22.471 56.51-36.314zM1082.975 810.667c11.757-11.757 24.557-25.6 36.219-38.4-20.29-10.619-41.624-18.11-65.043-24.557-18.11 52.243-36.219 95.953-52.243 129.043 28.824-19.153 56.604-41.529 81.067-66.086zM941.132 862.91l2.086 10.619c14.981-28.824 28.824-59.733 41.624-91.781 5.31-13.843 10.619-28.824 16.024-43.71-26.643-3.224-57.647-3.224-85.333 0 8.533 41.719 17.067 84.385 25.6 124.871zM959.336 680.486c20.29 1.043 39.443 2.086 58.69 4.267 17.067-61.819 29.867-124.776 36.219-188.776-59.733-7.49-122.69-6.447-182.424 1.043 10.619 64 21.333 126.957 33.090 186.69 18.11-2.086 36.219-3.224 54.424-3.224zM863.289 748.753c-34.133 8.533-66.181 22.376-93.867 41.624 44.753 47.976 90.643 81.067 124.776 102.4-10.619-45.796-20.196-93.867-30.91-144.024zM852.575 694.424c-11.757-64-22.376-125.914-33.090-187.733-60.776 12.8-116.243 34.133-161.090 60.776-7.49 4.267-14.981 9.576-21.333 13.843 24.557 59.733 56.51 116.243 95.953 166.4 34.228-23.419 75.852-41.624 119.561-53.286zM792.841 885.286c-22.376-18.11-44.753-39.443-65.043-61.819-8.533 8.533-16.024 18.11-23.514 27.686 28.824 14.981 58.69 25.6 88.557 34.133zM589.179 768c21.333 21.333 43.71 40.581 68.267 56.51 9.576-14.981 21.333-29.867 34.133-42.667-39.443-50.157-72.533-104.486-98.133-164.219-28.824 28.824-46.933 61.819-52.243 93.867 14.886 21.333 30.91 40.486 47.976 56.51zM485.641 292.314c13.843-9.576 28.824-19.153 44.753-27.781 0-21.333 1.043-43.71 3.224-66.086-19.153 29.772-36.219 60.776-47.976 93.867zM530.489 344.557c-30.91 22.376-56.51 46.933-72.533 72.533-1.043 10.619-1.043 21.333-1.043 32.047 0 66.181 13.843 129.043 40.581 187.733 16.024-30.91 39.443-59.733 70.353-86.376-20.29-65.138-33.090-134.542-37.357-205.938zM759.846 22.376c-60.776 21.333-116.243 56.51-163.176 100.314-6.447 39.443-9.576 77.843-11.757 114.157 56.51-23.514 120.51-41.624 190.957-52.243-6.447-52.338-11.757-106.761-16.024-162.228zM784.308 254.957c-65.043 10.619-123.733 26.643-174.933 49.114-8.533 3.224-17.067 7.49-24.557 11.757 2.086 71.49 12.8 139.757 30.91 203.757 2.086-4.267 5.31-6.353 8.533-7.49 52.243-30.91 116.243-55.467 185.647-69.31-9.576-65.138-18.11-127.052-25.6-187.828zM1000.865 7.49c-61.819-12.8-126.957-11.757-187.733 1.043 3.224 53.381 8.533 108.847 16.024 169.624 34.133-3.224 69.31-5.31 105.624-5.31 36.219 0 72.533 2.086 108.753 6.447-9.576-56.604-24.462-114.252-42.667-171.804zM940.089 242.157h-5.31c-34.133 0-67.224 1.043-97.090 5.31 7.49 60.776 16.024 123.733 25.6 185.647 65.043-8.533 133.31-9.576 197.31-1.043 1.043-17.067 1.043-34.133 1.043-52.243-1.043-42.667-3.224-86.376-8.533-130.181-38.4-5.404-75.662-7.49-113.019-7.49zM1180.065 88.557c-36.219-27.686-76.8-49.114-119.467-65.043 16.024 53.286 28.824 108.847 37.357 162.133 41.624 6.447 82.11 16.024 120.51 28.824-9.576-40.581-22.376-83.247-38.4-125.914zM1234.489 292.314c-38.4-14.981-81.067-26.643-126.957-35.176 4.267 41.624 6.447 83.247 6.447 121.553 0 22.376 0 41.624-1.043 60.776 45.89 8.533 88.557 21.333 128 37.357 2.086-22.376 3.224-43.71 3.224-65.043-0.095-38.4-3.224-78.981-9.671-119.467zM1262.175 167.443c6.447 22.376 11.757 44.753 16.024 68.267 12.8 5.31 25.6 10.619 37.357 17.067-14.886-29.867-31.953-58.69-53.381-85.333zM1293.179 318.957c4.267 32.047 5.31 64 5.31 93.867-1.043 28.824-3.224 57.647-6.447 88.557 21.333 11.757 41.624 24.557 59.733 38.4 6.447-29.867 9.576-60.776 9.576-90.643 0-32.047-3.224-62.957-9.576-93.867-16.972-12.895-36.219-25.695-58.596-36.314z" />
<glyph unicode="&#xe90a;" glyph-name="Location" d="M510.933 960c-282.667 0-510.933-228.267-510.933-510.933 0-281.6 228.267-510.933 510.933-510.933s510.933 228.267 510.933 510.933c0 282.667-229.333 510.933-510.933 510.933zM432 881.067h19.2l58.667-58.667v58.667h39.467v-118.4h-19.2l-58.667 58.667v-58.667h-39.467v118.4zM589.867 370.133l-354.133-196.267 196.267 353.067 354.133 196.267-196.267-353.067zM560 400l-99.2 99.2-123.733-224z" />
<glyph unicode="&#xe90b;" glyph-name="Time" horiz-adv-x="1820" d="M911.265 960c-283.686 0-513.043-229.357-513.043-513.043 0-282.643 229.357-513.043 513.043-513.043 282.643 0 513.043 229.357 513.043 513.043-1.043 283.686-230.4 513.043-513.043 513.043zM911.265 53.381c-217.6 0-394.619 175.976-394.619 394.619s175.976 394.619 394.619 394.619c217.6 0 394.619-175.976 394.619-394.619s-177.019-394.619-394.619-394.619zM949.665 762.69h-77.843v-354.133h275.247v77.843h-197.404z" />
<glyph unicode="&#xe90c;" glyph-name="AddOns" d="M-2.133 438.4c0 120.533 112 112 157.867 80 59.733-40.533 78.933 20.267 78.933 59.733 0 40.533-39.467 160-59.733 200.533s20.267 56.533 39.467 59.733c100.267 20.267 158.933 40.533 198.4 40.533s20.267-40.533 20.267-40.533l-20.267-80c-20.267-80 39.467-120.533 99.2-120.533s118.4 40.533 99.2 120.533l-20.267 80c0 0-20.267 40.533 20.267 40.533 39.467 0 99.2-20.267 197.333-40.533 19.2-4.267 59.733-20.267 39.467-59.733-19.2-40.533-58.667-160-58.667-200.533 0-39.467 19.2-100.267 78.933-59.733 46.933 30.933 157.867 40.533 157.867-80s-112-110.933-157.867-80c-59.733 40.533-78.933-20.267-78.933-59.733 0-40.533 39.467-160 59.733-200.533s-20.267-56.533-39.467-59.733c-99.2-20.267-157.867-40.533-197.333-40.533s-20.267 40.533-20.267 40.533l20.267 80c20.267 80-39.467 120.533-99.2 120.533s-118.4-40.533-99.2-120.533l20.267-80c0 0 20.267-40.533-20.267-40.533-39.467 0-99.2 20.267-197.333 40.533-19.2 4.267-59.733 20.267-39.467 59.733 20.267 40.533 59.733 160 59.733 200.533s-20.267 100.267-78.933 59.733c-48-32-160-40.533-160 80z" />
<glyph unicode="&#xe90d;" glyph-name="Audio" d="M873.6 112c-8.533 0-16 3.2-23.467 8.533-14.933 12.8-17.067 35.2-4.267 50.133 140.8 168.533 139.733 358.4 0 533.333-12.8 16-9.6 38.4 5.333 50.133 16 12.8 38.4 9.6 50.133-5.333 162.133-201.6 162.133-428.8 0-624-6.4-8.533-17.067-12.8-27.733-12.8zM757.333 206.933c-7.467 0-16 2.133-22.4 8.533-14.933 12.8-17.067 35.2-4.267 51.2 89.6 106.667 88.533 227.2 0 338.133-12.8 14.933-9.6 38.4 5.333 50.133 14.933 12.8 38.4 9.6 50.133-5.333 112-138.667 110.933-294.4 0-428.8-8.533-8.533-18.133-13.867-28.8-13.867zM632.533 280.533c-8.533 0-16 3.2-23.467 8.533-14.933 12.8-17.067 35.2-4.267 51.2 52.267 62.933 52.267 130.133 0 195.2-12.8 14.933-9.6 38.4 5.333 50.133 14.933 12.8 38.4 9.6 50.133-5.333 74.667-91.733 74.667-196.267 0-285.867-7.467-9.6-18.133-13.867-27.733-13.867zM198.4 588.8h-193.067v-307.2l193.067-1.067 308.267-307.2v923.733z" />
<glyph unicode="&#xe90e;" glyph-name="Downloads" d="M734.933 636.8l-48 48-139.733-139.733v416h-68.267v-416l-139.733 139.733-48-48 221.867-222.933zM786.133 448l-138.667 52.267-26.667-26.667 116.267-43.733-224-84.267-224 84.267 116.267 43.733-26.667 26.667-138.667-52.267-102.4-204.8 102.4-38.4v-151.467c0 0 0-14.933 12.8-20.267l245.333-91.733c14.933-5.333 14.933-5.333 30.933 0l245.333 91.733c12.8 4.267 12.8 20.267 12.8 20.267v151.467l102.4 38.4-103.467 204.8zM424.533 171.733l-238.933 90.667 71.467 142.933 238.933-90.667-71.467-142.933zM601.6 171.733l-71.467 144 238.933 89.6 71.467-144-238.933-89.6z" />
<glyph unicode="&#xe90f;" glyph-name="Data" d="M4.267 566.4l52.267-52.267 196.267 196.267v-615.467h74.667v615.467l196.267-196.267 52.267 52.267-285.867 285.867zM1021.867 291.2l-52.267 52.267-197.333-196.267v615.467h-73.6v-615.467l-196.267 196.267-53.333-52.267 286.933-285.867z" />
<glyph unicode="&#xe910;" glyph-name="LogOut" d="M746.667 712.533l-51.2-51.2 190.933-189.867h-598.4v-72.533h598.4l-190.933-190.933 51.2-51.2 278.4 278.4zM72.533 759.467h432v72.533h-504.533v-793.6h504.533v71.467h-432z" />
<glyph unicode="&#xe911;" glyph-name="Signal" d="M541.867 170.667l32 56.533 45.867-195.2-77.867 138.667zM487.467 266.667l38.4 164.267 38.4-163.2-38.4-68.267-38.4 67.2zM434.133 36.267l43.733 188.8 30.933-55.467-74.667-133.333zM544 497.067c19.2 7.467 34.133 25.6 34.133 48 0 28.8-23.467 51.2-51.2 51.2-28.8 0-51.2-23.467-51.2-51.2 0-22.4 13.867-40.533 34.133-48l-131.2-560h33.067l115.2 204.8 113.067-204.8h33.067l-129.067 560zM440.533 408.533c-3.2 0-6.4 1.067-8.533 3.2-40.533 29.867-65.067 77.867-65.067 128 0 87.467 71.467 158.933 158.933 158.933s157.867-71.467 157.867-158.933c0-50.133-23.467-97.067-62.933-126.933-6.4-4.267-14.933-3.2-20.267 3.2-4.267 6.4-3.2 14.933 3.2 20.267 33.067 24.533 52.267 62.933 52.267 103.467 0 71.467-57.6 129.067-129.067 129.067s-129.067-57.6-129.067-129.067c0-41.6 20.267-80 53.333-104.533 6.4-4.267 7.467-13.867 3.2-20.267-4.267-4.267-8.533-6.4-13.867-6.4zM404.267 293.333c-3.2 0-6.4 1.067-8.533 2.133-89.6 49.067-145.067 141.867-145.067 243.2 0 153.6 124.8 277.333 277.333 277.333 153.6 0 277.333-124.8 277.333-277.333 0-101.333-55.467-195.2-144-243.2-9.6-5.333-20.267-2.133-25.6 7.467-5.333 8.533-2.133 20.267 7.467 25.6 76.8 42.667 124.8 122.667 124.8 211.2 1.067 132.267-106.667 240-240 240-132.267 0-240-107.733-240-241.067 0-87.467 48-168.533 124.8-211.2 8.533-5.333 12.8-16 7.467-25.6-3.2-5.333-9.6-8.533-16-8.533zM346.667 178.133c-3.2 0-7.467 1.067-10.667 2.133-136.533 71.467-220.8 211.2-220.8 364.8 0 227.2 184.533 411.733 411.733 411.733s411.733-184.533 411.733-411.733c0-151.467-83.2-291.2-217.6-362.667-10.667-5.333-24.533-2.133-30.933 9.6-6.4 10.667-2.133 24.533 9.6 30.933 119.467 64 193.067 187.733 193.067 323.2 0 200.533-164.267 364.8-366.933 364.8-201.6 0-365.867-164.267-365.867-365.867 0-136.533 75.733-261.333 196.267-324.267 10.667-5.333 14.933-19.2 9.6-30.933-3.2-7.467-11.733-11.733-19.2-11.733z" />
<glyph unicode="&#xe912;" glyph-name="Upload" d="M281.6 211.2l51.2-52.267 148.267 149.333v-370.133h73.6v370.133l148.267-149.333 51.2 52.267-235.733 236.8zM828.8 695.467c0 2.133 1.067 5.333 1.067 7.467 0 77.867-62.933 141.867-141.867 141.867-22.4 0-43.733-5.333-61.867-14.933-19.2 73.6-85.333 128-164.267 128-93.867 0-169.6-75.733-169.6-169.6 0-20.267 3.2-39.467 9.6-56.533h-38.4c-77.867 0-141.867-62.933-141.867-141.867 0-77.867 62.933-141.867 141.867-141.867h523.733c70.4 0 128 57.6 128 128-1.067 54.4-36.267 101.333-86.4 119.467z" />
<glyph unicode="&#xe913;" glyph-name="Download" horiz-adv-x="1820" d="M1215.336 696.51c0 2.086 1.043 5.31 1.043 7.49 0 77.843-64 141.843-141.843 141.843-22.376 0-43.71-5.31-61.819-14.981-19.247 73.671-86.471 129.138-166.495 129.138-93.867 0-170.667-75.757-170.667-170.667 0-20.29 3.224-39.443 9.576-56.51h-38.4c-78.886 0-141.843-64-141.843-141.843s64-141.938 141.843-141.938h219.781v-372.243l-148.29 149.333-52.243-51.2 237.89-237.89 236.753 237.89-51.2 51.2-149.333-149.333v372.243h231.443c70.353 0 128 57.647 128 128 1.138 55.467-35.176 102.4-84.196 119.467z" />
<glyph unicode="&#xe914;" glyph-name="Adjust" horiz-adv-x="1820" d="M1403.070 829.914l-126.957-125.914-72.533 36.219-36.219 72.533 125.914 126.957c-27.686 12.8-57.647 19.153-89.6 19.153-120.51 0-218.643-98.133-218.643-218.643 0-21.902 3.224-43.046 9.292-63.052l-312.32-312.036c-20.006 6.068-41.15 9.292-62.957 9.292-120.51 1.043-218.738-97.090-218.738-218.643 0-32.047 6.447-61.819 19.153-89.6l127.052 125.819 72.533-36.219 36.219-72.533-125.914-126.957c27.686-12.8 57.647-19.153 89.6-19.153 120.51 0 218.643 98.133 218.643 218.643 0 21.902-3.224 43.141-9.292 63.147l312.13 312.036c20.006-6.068 41.15-9.292 63.052-9.292 120.604-1.138 218.738 96.996 218.738 218.548 0 32.047-6.447 62.957-19.153 89.695z" />
<glyph unicode="&#xe915;" glyph-name="Video" d="M778.667 263.467v40.533c0 44.8-36.267 82.133-82.133 82.133h-491.733c-44.8 0-82.133-36.267-82.133-82.133v-286.933c0-44.8 36.267-82.133 82.133-82.133h491.733c44.8 0 82.133 36.267 82.133 82.133v40.533l246.4-82.133v369.067l-246.4-81.067zM246.4 960c-136.533 0-246.4-109.867-246.4-246.4s109.867-246.4 246.4-246.4c135.467 0 246.4 109.867 246.4 246.4s-110.933 246.4-246.4 246.4zM246.4 632.533c-44.8 0-82.133 36.267-82.133 82.133 0 44.8 36.267 82.133 82.133 82.133s82.133-36.267 82.133-82.133c0-45.867-37.333-82.133-82.133-82.133zM778.667 960c-135.467 0-245.333-109.867-245.333-246.4s109.867-245.333 245.333-245.333c135.467 0 246.4 109.867 246.4 246.4s-109.867 245.333-246.4 245.333zM778.667 632.533c-44.8 0-82.133 36.267-82.133 82.133 0 44.8 36.267 82.133 82.133 82.133 44.8 0 82.133-36.267 82.133-82.133s-36.267-82.133-82.133-82.133z" />
<glyph unicode="&#xe916;" glyph-name="HomeBroadband" d="M625.067 483.2l-68.267 378.667 84.267 14.933 53.333-294.4 293.333 53.333 16-84.267zM757.333 678.4l-48 265.6 84.267 14.933 32-181.333 181.333 32 14.933-83.2zM856.533 438.4v-248.533h-769.067v512h411.733l-14.933 85.333h-395.733c-46.933 0-85.333-38.4-85.333-85.333v-512c0-46.933 38.4-85.333 85.333-85.333h341.333v-85.333h-298.667v-85.333h682.667v85.333h-298.667v85.333h341.333c46.933 0 85.333 38.4 85.333 85.333v263.467l-85.333-14.933z" />
<glyph unicode="&#xe917;" glyph-name="MobileBroadband" horiz-adv-x="791" d="M493.77 515.62l-46.158 259.62 58.44 9.826 35.426-201.051 201.956 36.202 9.956-57.665zM584.404 649.18l-32.97 182.044 57.665 9.956 22.238-123.604 124.509 22.238 10.731-57.665zM352.892 159.49l21.536 21.616 106.887-106.495-21.536-21.616-106.887 106.495zM544.84 181.786l-84.945-85.721 21.463-21.463 84.945 85.721zM481.358 288.065l-21.463-21.333 106.408-106.408 21.333 21.463zM503.596 266.731c22.238 23.919 22.238 61.802-0.776 85.721-1.681 1.681-3.491 3.232-5.301 4.655l-229.754 229.624-0.129-0.129c-23.919 23.661-61.673 23.661-84.687-0.129l-0.259 0.259-126.061-126.061c-0.776-0.646-1.552-1.293-2.198-2.069-23.919-23.919-23.919-61.802 0-84.945 0.129-0.129 0.129-0.129 0.259-0.259l-0.129-0.129 230.141-230.141c1.422-1.81 2.974-3.62 4.655-5.301 23.919-23.919 61.802-23.919 84.945 0 1.164 1.164 2.198 2.327 3.232 3.491l119.855 119.855c1.939 1.681 4.008 3.362 6.206 5.56z" />
<glyph unicode="&#xe918;" glyph-name="VoiceBroadband" d="M615.467 529.067l-61.867 343.467 77.867 12.8 45.867-266.667 267.733 48 12.8-75.733zM734.933 706.133l-43.733 240 76.8 13.867 28.8-164.267 164.267 29.867 13.867-76.8zM484.267 328.533v130.133h-43.733v-130.133c0-96-77.867-173.867-173.867-173.867s-172.8 77.867-172.8 173.867v130.133h-43.733v-130.133c0-105.6 74.667-193.067 173.867-213.333v-91.733h-130.133v-86.4h346.667v86.4h-130.133v91.733c99.2 20.267 173.867 107.733 173.867 213.333zM267.733 241.067c71.467 0 130.133 58.667 130.133 130.133v261.333c0 71.467-58.667 130.133-130.133 130.133s-130.133-58.667-130.133-130.133v-260.267c0-72.533 57.6-131.2 130.133-131.2z" />
<glyph unicode="&#xe919;" glyph-name="SmartphoneBroadband" d="M520.533 58.667h-403.2v637.867h403.2v-637.867zM288-3.2c0 17.067 13.867 30.933 30.933 30.933s30.933-13.867 30.933-30.933c0-17.067-13.867-30.933-30.933-30.933s-30.933 13.867-30.933 30.933zM558.933 23.467v674.133c0 53.333-36.267 89.6-89.6 89.6h-300.8c-53.333 0-89.6-36.267-89.6-89.6v-674.133c0-53.333 36.267-89.6 89.6-89.6h300.8c52.267 0 89.6 36.267 89.6 89.6zM683.733 617.6l-49.067 272 61.867 10.667 37.333-212.267 211.2 38.4 10.667-60.8zM778.667 757.333l-34.133 190.933 60.8 10.667 23.467-130.133 130.133 23.467 10.667-60.8z" />
<glyph unicode="&#xe91a;" glyph-name="FeaturePhoneBroadband" d="M625.067 551.467l-58.667 324.267 73.6 12.8 43.733-252.8 252.8 45.867 12.8-72.533zM738.133 717.867l-41.6 228.267 72.533 12.8 27.733-155.733 155.733 27.733 12.8-71.467zM452.267 694.4v171.733c0 22.4-18.133 40.533-40.533 40.533s-40.533-18.133-40.533-40.533v-161.067h-201.6c-44.8 0-81.067-36.267-81.067-81.067v-604.8c0-44.8 36.267-81.067 81.067-81.067h242.133c44.8 0 81.067 36.267 81.067 81.067v605.867c0 29.867-16 55.467-40.533 69.333zM169.6-20.267c-22.4 0-40.533 18.133-40.533 40.533s18.133 40.533 40.533 40.533c22.4 0 40.533-18.133 40.533-40.533s-18.133-40.533-40.533-40.533zM169.6 100.267c-22.4 0-40.533 18.133-40.533 40.533s18.133 40.533 40.533 40.533c22.4 0 40.533-18.133 40.533-40.533s-18.133-40.533-40.533-40.533zM169.6 220.8c-22.4 0-40.533 18.133-40.533 40.533s18.133 40.533 40.533 40.533c22.4 0 40.533-18.133 40.533-40.533s-18.133-40.533-40.533-40.533zM291.2-20.267c-22.4 0-40.533 18.133-40.533 40.533s18.133 40.533 40.533 40.533c22.4 0 40.533-18.133 40.533-40.533s-18.133-40.533-40.533-40.533zM291.2 100.267c-22.4 0-40.533 18.133-40.533 40.533s18.133 40.533 40.533 40.533c22.4 0 40.533-18.133 40.533-40.533s-18.133-40.533-40.533-40.533zM291.2 220.8c-22.4 0-40.533 18.133-40.533 40.533s18.133 40.533 40.533 40.533c22.4 0 40.533-18.133 40.533-40.533s-18.133-40.533-40.533-40.533zM411.733-20.267c-22.4 0-40.533 18.133-40.533 40.533s18.133 40.533 40.533 40.533c22.4 0 40.533-18.133 40.533-40.533s-18.133-40.533-40.533-40.533zM411.733 100.267c-22.4 0-40.533 18.133-40.533 40.533s18.133 40.533 40.533 40.533c22.4 0 40.533-18.133 40.533-40.533s-18.133-40.533-40.533-40.533zM411.733 220.8c-22.4 0-40.533 18.133-40.533 40.533s18.133 40.533 40.533 40.533c22.4 0 40.533-18.133 40.533-40.533s-18.133-40.533-40.533-40.533zM452.267 342.4h-322.133v242.133h323.2l-1.067-242.133z" />
<glyph unicode="&#xe91b;" glyph-name="Home" d="M135.467 414.933v-394.667c0 0 1.067-87.467 86.4-87.467h164.267v314.667h167.467v-314.667h246.4c87.467 0 87.467 86.4 87.467 87.467s0 394.667 0 394.667h134.4l-509.867 544-509.867-544h133.333z" />
<glyph unicode="&#xe91c;" glyph-name="Bookmark" d="M209.067 957.867l-85.333-85.333v-934.4h679.467v934.4h-84.267v-467.2l-106.667 105.6-106.667-105.6v467.2h-339.2l42.667 42.667h636.8v-934.4l42.667 41.6v935.467z" />
<glyph unicode="&#xe91d;" glyph-name="Document" d="M698.667 960h-546.133v-1024h750.933v819.2l-204.8 204.8zM835.2 4.267h-614.4v887.467h409.6v-204.8h204.8c0 0 0-682.667 0-682.667zM663.467 482.133h-270.933c-19.2 0-35.2 16-35.2 35.2s16 35.2 35.2 35.2h270.933c19.2 0 35.2-16 35.2-35.2s-16-35.2-35.2-35.2zM663.467 342.4h-270.933c-19.2 0-35.2 16-35.2 35.2s16 35.2 35.2 35.2h270.933c19.2 0 35.2-16 35.2-35.2s-16-35.2-35.2-35.2zM663.467 202.667h-270.933c-19.2 0-35.2 16-35.2 35.2s16 35.2 35.2 35.2h270.933c19.2 0 35.2-16 35.2-35.2s-16-35.2-35.2-35.2z" />
<glyph unicode="&#xe91e;" glyph-name="Create" d="M428.8 230.4l-51.2-153.6 153.6 51.2 50.133 51.2-101.333 102.4zM613.333 210.133l408.533 409.6-102.4 101.333-408.533-408.533zM681.6 6.4h-613.333v885.333h408.533v-204.8h204.8v-126.933l68.267 68.267v126.933l-204.8 204.8h-545.067v-1021.867h749.867v331.733l-68.267-68.267z" />
<glyph unicode="&#xe91f;" glyph-name="List" d="M279.467 912h743.467v-92.8h-743.467v92.8zM279.467 633.6h743.467v-92.8h-743.467v92.8zM279.467 355.2h743.467v-92.8h-743.467v92.8zM279.467 76.8h743.467v-92.8h-743.467v92.8zM1.067 958.933h185.6v-185.6h-185.6v185.6zM1.067 680.533h185.6v-185.6h-185.6v185.6zM1.067 401.067h185.6v-185.6h-185.6v185.6zM1.067 122.667h185.6v-185.6h-185.6v185.6z" />
<glyph unicode="&#xe920;" glyph-name="Picture" d="M0 66.133h1024v750.933h-1024v-750.933zM955.733 134.4l-204.8 204.8-102.4-102.4-238.933 238.933-341.333-341.333v614.4h887.467v-614.4zM887.467 578.133c0-56.533-45.867-102.4-102.4-102.4s-102.4 45.867-102.4 102.4c0 56.533 45.867 102.4 102.4 102.4s102.4-45.867 102.4-102.4z" />
<glyph unicode="&#xe921;" glyph-name="TV" d="M887.467 755.2h-307.2l170.667 170.667-34.133 34.133-204.8-204.8-203.733 203.733-34.133-34.133 170.667-170.667h-307.2c-37.333 0-68.267-30.933-68.267-68.267v-680.533c0-37.333 30.933-68.267 68.267-68.267h748.8c37.333 0 68.267 30.933 68.267 68.267v681.6c0 37.333-29.867 68.267-67.2 68.267zM846.933 35.2c-22.4 0-41.6 18.133-41.6 41.6 0 22.4 18.133 41.6 41.6 41.6 22.4 0 41.6-18.133 41.6-41.6-1.067-22.4-19.2-41.6-41.6-41.6zM887.467 210.133h-749.867v476.8h748.8v-476.8z" />
<glyph unicode="&#xe922;" glyph-name="Mobile" d="M766.933 85.333h-483.2v764.8h483.2v-764.8zM488.533 10.667c0 20.267 17.067 37.333 37.333 37.333s37.333-17.067 37.333-37.333c0-20.267-17.067-37.333-37.333-37.333s-37.333 17.067-37.333 37.333zM813.867 42.667v809.6c0 64-43.733 107.733-107.733 107.733h-360.533c-64 0-107.733-43.733-107.733-107.733v-809.6c0-64 43.733-107.733 107.733-107.733h359.467c64 0 108.8 44.8 108.8 107.733z" />
<glyph unicode="&#xe923;" glyph-name="Refresh" d="M512 24.533c-196.267 0-356.267 160-356.267 356.267s160 356.267 356.267 356.267v89.6c-246.4 0-445.867-199.467-445.867-445.867 0-245.333 199.467-444.8 445.867-444.8 245.333 0 444.8 199.467 444.8 445.867h-89.6c1.067-197.333-158.933-357.333-355.2-357.333zM512 960v-356.267l266.667 178.133z" />
<glyph unicode="&#xe924;" glyph-name="Grid" d="M0 960h186.667v-186.667h-186.667v186.667zM279.467 960h186.667v-186.667h-186.667v186.667zM558.933 960h185.6v-186.667h-185.6v186.667zM837.333 960h186.667v-186.667h-186.667v186.667zM0 680.533h186.667v-186.667h-186.667v186.667zM279.467 680.533h186.667v-186.667h-186.667v186.667zM558.933 680.533h185.6v-186.667h-185.6v186.667zM837.333 680.533h186.667v-186.667h-186.667v186.667zM0 401.067h186.667v-186.667h-186.667v186.667zM279.467 401.067h186.667v-186.667h-186.667v186.667zM558.933 401.067h185.6v-186.667h-185.6v186.667zM837.333 401.067h186.667v-186.667h-186.667v186.667zM0 121.6h186.667v-185.6h-186.667v185.6zM279.467 121.6h186.667v-185.6h-186.667v185.6zM558.933 121.6h185.6v-185.6h-185.6v185.6zM837.333 121.6h186.667v-185.6h-186.667v185.6z" />
<glyph unicode="&#xe925;" glyph-name="Settings" d="M389.333 173.867c-60.8-24.533-130.133 4.267-154.667 64-24.533 60.8 3.2 130.133 64 154.667s130.133-3.2 154.667-64c24.533-59.733-3.2-129.067-64-154.667zM688 384l-29.867 73.6-92.8-6.4c-16 21.333-34.133 39.467-54.4 54.4l6.4 92.8-73.6 29.867-60.8-70.4c-25.6 3.2-51.2 3.2-77.867 0l-60.8 70.4-73.6-30.933 6.4-92.8c-21.333-16-39.467-34.133-54.4-54.4l-92.8 6.4-29.867-72.533 70.4-60.8c-3.2-25.6-4.267-51.2 0-77.867l-70.4-60.8 29.867-72.533 92.8 6.4c16-21.333 34.133-39.467 54.4-54.4l-6.4-93.867 72.533-29.867 60.8 70.4c25.6-4.267 51.2-4.267 77.867 0l60.8-70.4 73.6 29.867-6.4 92.8c21.333 16 39.467 34.133 54.4 54.4l92.8-6.4 29.867 72.533-69.333 61.867c3.2 25.6 3.2 51.2 0 77.867l70.4 60.8zM758.4 619.733c-43.733 0-78.933 35.2-78.933 78.933s35.2 78.933 78.933 78.933c43.733 0 78.933-35.2 78.933-78.933s-35.2-78.933-78.933-78.933zM1015.467 659.2v78.933l-67.2 13.867c-4.267 14.933-10.667 29.867-18.133 43.733l38.4 57.6-55.467 55.467-57.6-38.4c-13.867 7.467-27.733 13.867-43.733 18.133l-13.867 67.2h-78.933l-13.867-67.2c-14.933-4.267-29.867-10.667-43.733-18.133l-57.6 38.4-55.467-55.467 38.4-57.6c-7.467-13.867-13.867-27.733-18.133-43.733l-67.2-13.867v-78.933l67.2-13.867c4.267-14.933 10.667-29.867 18.133-43.733l-38.4-57.6 55.467-55.467 57.6 38.4c13.867-7.467 27.733-13.867 43.733-18.133l13.867-67.2h78.933l13.867 67.2c14.933 4.267 29.867 10.667 43.733 18.133l57.6-38.4 55.467 55.467-38.4 57.6c7.467 13.867 13.867 27.733 18.133 43.733l67.2 13.867z" />
<glyph unicode="&#xe926;" glyph-name="Cart" d="M3.2 808.533v0h156.8l237.867-508.8h396.8l161.067 386.133c7.467 17.067 26.667 25.6 44.8 18.133 17.067-7.467 25.6-26.667 18.133-44.8l-179.2-426.667h-485.333l-236.8 508.8h-114.133v67.2zM476.8 130.133c0 37.333-29.867 68.267-68.267 68.267-37.333 0-68.267-29.867-68.267-68.267 0-37.333 30.933-68.267 68.267-68.267 37.333 1.067 68.267 30.933 68.267 68.267zM850.133 130.133c0 37.333-29.867 68.267-68.267 68.267-37.333 0-68.267-29.867-68.267-68.267 0-37.333 30.933-68.267 68.267-68.267 37.333 1.067 68.267 30.933 68.267 68.267zM369.067 656c0-27.733-22.4-51.2-51.2-51.2-27.733 0-51.2 22.4-51.2 51.2 0 27.733 22.4 51.2 51.2 51.2s51.2-22.4 51.2-51.2zM437.333 520.533c0-27.733-22.4-51.2-51.2-51.2-27.733 0-51.2 22.4-51.2 51.2 0 27.733 22.4 51.2 51.2 51.2 27.733 0 51.2-23.467 51.2-51.2zM572.8 520.533c0-27.733-22.4-51.2-51.2-51.2-27.733 0-51.2 22.4-51.2 51.2 0 27.733 22.4 51.2 51.2 51.2s51.2-23.467 51.2-51.2zM641.067 656c0-27.733-22.4-51.2-51.2-51.2-27.733 0-51.2 22.4-51.2 51.2 0 27.733 22.4 51.2 51.2 51.2 27.733 0 51.2-22.4 51.2-51.2zM641.067 385.067c0-27.733-22.4-51.2-51.2-51.2-27.733 0-51.2 22.4-51.2 51.2 0 27.733 22.4 51.2 51.2 51.2 27.733 0 51.2-23.467 51.2-51.2zM708.267 520.533c0-27.733-22.4-51.2-51.2-51.2-27.733 0-51.2 22.4-51.2 51.2 0 27.733 22.4 51.2 51.2 51.2s51.2-23.467 51.2-51.2zM776.533 385.067c0-27.733-22.4-51.2-51.2-51.2-27.733 0-51.2 22.4-51.2 51.2 0 27.733 22.4 51.2 51.2 51.2s51.2-23.467 51.2-51.2zM844.8 520.533c0-27.733-22.4-51.2-51.2-51.2-27.733 0-51.2 22.4-51.2 51.2 0 27.733 22.4 51.2 51.2 51.2 27.733 0 51.2-23.467 51.2-51.2zM776.533 656c0-27.733-22.4-51.2-51.2-51.2-27.733 0-51.2 22.4-51.2 51.2 0 27.733 22.4 51.2 51.2 51.2s51.2-22.4 51.2-51.2zM912 656c0-27.733-22.4-51.2-51.2-51.2-27.733 0-51.2 22.4-51.2 51.2 0 27.733 22.4 51.2 51.2 51.2s51.2-22.4 51.2-51.2zM504.533 656c0-27.733-22.4-51.2-51.2-51.2-27.733 0-51.2 22.4-51.2 51.2 0 27.733 22.4 51.2 51.2 51.2s51.2-22.4 51.2-51.2zM504.533 385.067c0-27.733-22.4-51.2-51.2-51.2-27.733 0-51.2 22.4-51.2 51.2 0 27.733 22.4 51.2 51.2 51.2s51.2-23.467 51.2-51.2z" />
<glyph unicode="&#xe927;" glyph-name="Usage" d="M532.267 192l-236.8-70.4c1.067 94.933 65.067 134.4 133.333 176 38.4 23.467 80 49.067 103.467 85.333 23.467-37.333 65.067-62.933 103.467-85.333 68.267-40.533 132.267-80 133.333-176l-236.8 70.4zM295.467 773.333c0 1.067 0 2.133 0 2.133 0 68.267 110.933 128 236.8 128s236.8-59.733 236.8-128c0-1.067 0-2.133 0-2.133l-236.8-70.4-236.8 70.4zM568.533 448c0 109.867 256 109.867 256 328.533 0 108.8-146.133 182.4-292.267 182.4s-292.267-73.6-292.267-182.4c0-218.667 256-218.667 256-328.533s-256-109.867-256-328.533c0-109.867 146.133-182.4 292.267-182.4s292.267 73.6 292.267 182.4c0 218.667-256 218.667-256 328.533z" />
<glyph unicode="&#xe928;" glyph-name="Rating" d="M510.933 281.6l-185.6-135.467 71.467 218.667-184.533 134.4h227.2l71.467 217.6 70.4-217.6h227.2l-183.467-134.4 71.467-217.6-185.6 134.4zM1016.533 566.4h-386.133l-119.467 366.933-119.467-366.933h-386.133l312.533-227.2-120.533-369.067 313.6 228.267 313.6-228.267-120.533 369.067 312.533 227.2z" />
<glyph unicode="&#xe929;" glyph-name="Rating2" d="M1026.133 558.933h-391.467l-120.533 372.267-122.667-372.267h-390.4l315.733-230.4-121.6-373.333 318.933 230.4 316.8-230.4-121.6 373.333z" />
<glyph unicode="&#xe92a;" glyph-name="Telephone" d="M1012.267 178.133l-161.067 128c-27.733 24.533-51.2 6.4-51.2 6.4l-142.933-83.2c-78.933 5.333-356.267 278.4-364.8 358.4l70.4 142.933c0 0 20.267 33.067-5.333 61.867l-131.2 157.867c-51.2 65.067-257.067-160-224-238.933 120.533-324.267 418.133-646.4 786.133-772.267 78.933-30.933 289.067 189.867 224 238.933z" />
<glyph unicode="&#xe92b;" glyph-name="Attachment" d="M510.933-65.067c-66.133 0-128 21.333-173.867 60.8-53.333 45.867-81.067 109.867-81.067 185.6v583.467c0 126.933 91.733 193.067 182.4 193.067s182.4-66.133 182.4-193.067v-499.2c0-41.6-18.133-67.2-34.133-81.067-19.2-17.067-44.8-26.667-72.533-26.667-54.4 0-112 37.333-112 106.667v402.133h72.533v-401.067c0-34.133 37.333-34.133 38.4-34.133 9.6 0 18.133 3.2 24.533 8.533s9.6 13.867 9.6 25.6v499.2c0 83.2-54.4 120.533-108.8 120.533s-109.867-37.333-109.867-120.533v-583.467c0-118.4 94.933-172.8 182.4-172.8s182.4 53.333 182.4 172.8v583.467h72.533v-583.467c1.067-161.067-128-246.4-254.933-246.4z" />
<glyph unicode="&#xe92c;" glyph-name="Placemarker" d="M937.6 538.667c0-231.467-420.267-605.867-420.267-605.867s-420.267 373.333-420.267 605.867c0 232.533 187.733 420.267 420.267 420.267s420.267-188.8 420.267-420.267zM742.4 538.667c0 124.8-100.267 225.067-225.067 225.067s-225.067-100.267-225.067-225.067c0-123.733 100.267-225.067 225.067-225.067s225.067 100.267 225.067 225.067z" />
<glyph unicode="&#xe92d;" glyph-name="Eye" horiz-adv-x="1820" d="M911.265 787.247c-379.733 0-509.914-353.090-509.914-353.090s130.181-353.090 509.914-353.090c392.533 0 509.914 353.090 509.914 353.090s-130.181 353.090-509.914 353.090zM911.265 198.447c-125.914 0-235.71 106.667-235.71 235.71s109.89 235.71 235.71 235.71 235.71-106.667 235.71-235.71-109.796-235.71-235.71-235.71zM911.265 532.29c-54.424 0-98.133-43.71-98.133-98.133s43.71-98.133 98.133-98.133c54.424 0 98.133 43.71 98.133 98.133s-43.71 98.133-98.133 98.133z" />
<glyph unicode="&#xe92e;" glyph-name="Message" d="M884.267 960h-745.6c-76.8 0-139.733-61.867-139.733-139.733v-466.133c0-76.8 62.933-139.733 139.733-139.733h466.133l279.467-279.467v279.467c76.8 0 139.733 62.933 139.733 139.733v466.133c0 77.867-62.933 139.733-139.733 139.733zM931.2 354.133c0-25.6-21.333-46.933-46.933-46.933h-92.8v-163.2l-163.2 164.267h-489.6c-25.6 0-46.933 21.333-46.933 46.933v465.067c0 25.6 21.333 46.933 46.933 46.933h745.6c25.6 0 46.933-21.333 46.933-46.933v-466.133z" />
<glyph unicode="&#xe92f;" glyph-name="MessageWaiting" d="M882.133 952.533h-742.4c-76.8 0-138.667-61.867-138.667-138.667v-464c0-76.8 61.867-138.667 139.733-138.667h464l278.4-278.4v277.333c76.8 0 138.667 61.867 138.667 138.667v465.067c0 76.8-62.933 138.667-139.733 138.667zM929.067 349.867c0-25.6-20.267-45.867-46.933-45.867h-92.8v-162.133l-162.133 161.067h-487.467c-25.6 0-46.933 20.267-46.933 45.867v465.067c0 25.6 21.333 46.933 46.933 46.933h742.4c25.6 0 46.933-21.333 46.933-46.933 0 0 0-464 0-464zM596.267 581.333c0-46.933-38.4-85.333-85.333-85.333s-85.333 38.4-85.333 85.333c0 46.933 38.4 85.333 85.333 85.333s85.333-37.333 85.333-85.333zM364.8 581.333c0-46.933-38.4-85.333-85.333-85.333s-85.333 38.4-85.333 85.333c0 46.933 38.4 85.333 85.333 85.333 46.933 1.067 85.333-37.333 85.333-85.333zM828.8 581.333c0-46.933-38.4-85.333-85.333-85.333s-85.333 38.4-85.333 85.333c0 46.933 38.4 85.333 85.333 85.333 46.933 1.067 85.333-37.333 85.333-85.333z" />
<glyph unicode="&#xe930;" glyph-name="Locked" horiz-adv-x="1820" d="M1175.799 594.11v101.357c0 145.067-117.381 263.49-263.49 263.49-145.067 0-263.49-117.381-263.49-263.49v-101.357h-130.086v-582.353c0 0 0-74.714 74.714-74.714h638.957c74.714 0 74.714 74.714 74.714 74.714v582.353h-131.319zM957.156 274.11v-182.424h-87.419v183.561c-26.643 14.981-43.71 42.667-43.71 75.757 0 47.976 39.443 87.419 87.514 87.419 47.976 0 87.419-39.443 87.419-88.557-0.095-31.953-18.204-60.776-43.804-75.757zM1048.841 594.11h-273.067v101.357c0 72.533 64 136.533 136.533 136.533s136.533-64 136.533-136.533v-101.357z" />
<glyph unicode="&#xe931;" glyph-name="Unlocked" d="M870.4 526.933v-522.667c0 0-1.067-68.267-67.2-68.267h-574.933c-67.2 0-67.2 68.267-67.2 68.267v522.667h476.8v197.333c0 65.067-57.6 122.667-122.667 122.667s-122.667-57.6-122.667-122.667v-39.467h-113.067v39.467c0 130.133 105.6 235.733 235.733 235.733s236.8-105.6 236.8-236.8v-197.333h118.4zM554.667 240c23.467 13.867 39.467 38.4 39.467 67.2 0 43.733-35.2 77.867-77.867 77.867-43.733 0-77.867-35.2-77.867-77.867 0-28.8 16-53.333 39.467-67.2v-163.2h76.8v163.2z" />
<glyph unicode="&#xe932;" glyph-name="Mail" d="M0 663.467v-604.8h1024v604.8l-512-372.267zM0 803.2v-46.933l512-372.267 512 372.267v46.933z" />
<glyph unicode="&#xe933;" glyph-name="Heart" d="M512 772.267c-59.733 66.133-138.667 107.733-218.667 107.733-61.867 0-123.733-20.267-173.867-57.6-52.267-38.4-88.533-92.8-105.6-155.733-18.133-69.333-22.4-181.333 65.067-322.133 83.2-133.333 227.2-262.4 430.933-381.867l1.067-1.067c0 0 1.067 0 1.067 0s1.067 0 1.067 0l1.067 1.067c202.667 120.533 347.733 248.533 430.933 381.867 87.467 140.8 83.2 252.8 65.067 322.133-17.067 62.933-54.4 117.333-105.6 155.733-50.133 37.333-110.933 57.6-173.867 57.6-81.067 0-161.067-41.6-218.667-107.733z" />
<glyph unicode="&#xe934;" glyph-name="Service" d="M1024 142.933c0 0-19.2 62.933-22.4 71.467-5.333 12.8-28.8 40.533-80 40.533h-819.2c-51.2 0-74.667-27.733-80-40.533-3.2-8.533-22.4-71.467-22.4-71.467h1024zM897.067 573.867c-50.133 73.6-124.8 114.133-210.133 114.133h-134.4v50.133h35.2c22.4 0 40.533 18.133 40.533 40.533s-18.133 40.533-40.533 40.533h-151.467c-22.4 0-40.533-18.133-40.533-40.533s18.133-40.533 40.533-40.533h35.2v-50.133h-134.4c-180.267 0-274.133-173.867-274.133-345.6 0-28.8 23.467-51.2 51.2-51.2h795.733c28.8 0 51.2 23.467 51.2 51.2 0 88.533-22.4 170.667-64 231.467z" />
<glyph unicode="&#xe935;" glyph-name="ServiceAlt" d="M796.8 737.067c2.133 4.267-17.067 4.267-30.933 4.267s-28.8 0-30.933-4.267l-217.6-562.133c-2.133-4.267 17.067-4.267 30.933-4.267s28.8 0 30.933 4.267l217.6 562.133zM515.2 442.667c4.267 0 4.267 12.8 4.267 26.667s0 25.6-4.267 25.6h-43.733v217.6c0 4.267-11.733 4.267-26.667 4.267s-26.667 0-29.867-4.267l-147.2-230.4c-2.133-4.267-2.133-7.467-2.133-20.267s0-18.133 3.2-18.133h141.867v-59.733c0-4.267 17.067-4.267 30.933-4.267s28.8 0 28.8 4.267v59.733l44.8-1.067zM337.067 496l73.6 118.4v-118.4h-73.6zM145.067 518.4c64 26.667 87.467 51.2 87.467 104.533 0 66.133-43.733 98.133-110.933 98.133-39.467 0-80-12.8-103.467-25.6-6.4-3.2 14.933-54.4 21.333-51.2 27.733 12.8 55.467 22.4 82.133 22.4 33.067 0 50.133-18.133 50.133-43.733s-12.8-37.333-73.6-64c-73.6-32-94.933-67.2-94.933-141.867v-37.333h222.933c4.267 0 4.267 11.733 4.267 25.6s0 26.667-4.267 26.667h-158.933v7.467c0 35.2 18.133 53.333 77.867 78.933zM839.467 173.867c-2.133-4.267 19.2-4.267 33.067-4.267s32 0 34.133 4.267l113.067 283.733c3.2 7.467 3.2 11.733 3.2 29.867 0 17.067-1.067 18.133-5.333 18.133h-218.667c-4.267 0-4.267-12.8-4.267-26.667s0-27.733 4.267-27.733h153.6l-113.067-277.333z" />
<glyph unicode="&#xe936;" glyph-name="Present" d="M823.467-61.867h-611.2c-66.133 0-96 48-96 96v424.533h804.267v-424.533c-1.067-65.067-49.067-96-97.067-96 0 0 0 0 0 0zM167.467 406.4v-372.267c0-20.267 8.533-44.8 44.8-44.8h611.2c20.267 0 44.8 8.533 44.8 44.8v372.267h-700.8zM952.533 486.4h-869.333v208h869.333v-208zM134.4 537.6h765.867v105.6h-765.867v-105.6zM460.8 694.4h114.133v-757.333h-114.133v757.333zM612.267 678.4c-43.733 0-83.2 5.333-84.267 5.333l-32 4.267 1.067 32c1.067 25.6 7.467 157.867 60.8 202.667 25.6 21.333 57.6 33.067 89.6 33.067 41.6 0 81.067-18.133 107.733-50.133 49.067-58.667 41.6-147.2-17.067-197.333-25.6-20.267-66.133-29.867-125.867-29.867zM570.667 752c11.733-1.067 26.667-2.133 41.6-2.133 59.733 0 75.733 11.733 78.933 13.867 28.8 24.533 32 67.2 8.533 94.933s-68.267 32-94.933 8.533c-17.067-11.733-28.8-64-34.133-115.2zM423.467 678.4v0c-59.733 0-100.267 9.6-124.8 30.933-58.667 50.133-67.2 138.667-17.067 197.333 26.667 32 66.133 50.133 107.733 50.133 33.067 0 65.067-11.733 89.6-33.067 53.333-44.8 59.733-177.067 60.8-202.667l1.067-32-32-4.267c-2.133-1.067-41.6-6.4-85.333-6.4zM388.267 884.267c-20.267 0-39.467-8.533-52.267-24.533-24.533-28.8-20.267-71.467 8.533-96 3.2-2.133 19.2-13.867 78.933-13.867 14.933 0 28.8 1.067 41.6 2.133-5.333 51.2-18.133 103.467-33.067 116.267-12.8 10.667-27.733 16-43.733 16z" />
<glyph unicode="&#xe937;" glyph-name="Smiley" d="M262.4 592c28.8 0 69.333 0 69.333 11.733v153.6c0 11.733-39.467 11.733-69.333 11.733-28.8 0-69.333 0-69.333-11.733v-152.533c1.067-12.8 40.533-12.8 69.333-12.8zM270.933 126.933c28.8 0 69.333 0 69.333 11.733v152.533c0 11.733-39.467 11.733-69.333 11.733-28.8 0-69.333 0-69.333-11.733v-152.533c0-11.733 40.533-11.733 69.333-11.733zM665.6 954.667c-20.267 20.267-138.667-66.133-124.8-83.2 65.067-72.533 139.733-237.867 139.733-421.333 0-194.133-75.733-368-125.867-437.333-12.8-19.2 114.133-90.667 133.333-72.533 57.6 61.867 152.533 260.267 152.533 512 0 216.533-96 416-174.933 502.4z" />
<glyph unicode="&#xe938;" glyph-name="Question" d="M390.4-48v178.133c0 13.867 45.867 13.867 80 13.867s80 0 80-13.867v-178.133c0-13.867-45.867-13.867-80-13.867-33.067 1.067-80 1.067-80 13.867zM315.733 743.467c-16-10.667-84.267 133.333-69.333 141.867 64 35.2 147.2 72.533 248.533 72.533 201.6 0 269.867-135.467 269.867-249.6 0-193.067-217.6-243.2-217.6-403.2v-43.733c0-13.867-35.2-13.867-75.733-13.867s-73.6 0-73.6 13.867v53.333c0 201.6 187.733 236.8 187.733 373.333 0 69.333-50.133 113.067-110.933 113.067-54.4-2.133-106.667-25.6-158.933-57.6z" />
<glyph unicode="&#xe939;" d="M894.933 85.333h-827.733c-35.2 0-64 28.8-64 64v544c0 35.2 28.8 64 64 64h888.533c35.2 0 64-28.8 64-64v-450.133l-124.8-157.867z" />
<glyph unicode="&#xe93a;" d="M505.6 215.467h-280.533c-41.6 0-74.667 33.067-74.667 74.667v267.733c0 41.6 34.133 74.667 74.667 74.667h280.533c41.6 0 74.667-34.133 74.667-74.667v-267.733c1.067-41.6-33.067-74.667-74.667-74.667zM449.067 257.067h57.6c18.133 0 34.133 14.933 34.133 33.067v24.533h-90.667c-1.067 0-1.067-57.6-1.067-57.6zM323.2 257.067h84.267v334.933h-181.333c-18.133 0-34.133-14.933-34.133-34.133v-38.4h131.2v-262.4zM192 314.667v-24.533c0-18.133 14.933-33.067 34.133-33.067h55.467v57.6h-89.6zM449.067 356.267h90.667v122.667h-90.667v-122.667zM192 356.267h89.6v122.667h-89.6v-122.667zM449.067 519.467h90.667v38.4c0 18.133-14.933 34.133-34.133 34.133h-57.6c1.067 0 1.067-72.533 1.067-72.533z" />
<glyph unicode="&#xe93b;" glyph-name="Coverage" d="M891.733 814.933c0 0-39.467 0-39.467-39.467v-691.2h171.733v692.267c0 0 0 39.467-39.467 39.467h-92.8zM677.333 696.533c0 0-39.467 0-39.467-39.467v-572.8h172.8v572.8c0 0 0 39.467-39.467 39.467h-93.867zM464 577.067c0 0-39.467 0-39.467-39.467v-453.333h172.8v453.333c0 0 0 39.467-39.467 39.467h-93.867zM250.667 457.6c0 0-39.467 0-39.467-39.467v-333.867h172.8v334.933c0 0 0 39.467-39.467 39.467l-93.867-1.067zM37.333 339.2c0 0-39.467 0-39.467-39.467v-215.467h172.8v215.467c0 0 0 39.467-39.467 39.467h-93.867z" />
<glyph unicode="&#xe93c;" glyph-name="Coverage2" d="M932.267 539.733c0-230.4-418.133-603.733-418.133-603.733s-418.133 373.333-418.133 603.733c0 231.467 187.733 419.2 418.133 419.2 231.467 0 418.133-187.733 418.133-419.2zM330.667 497.067l82.133 130.133v-130.133h-82.133zM486.4 464c3.2 0 3.2 8.533 3.2 17.067 0 7.467 0 17.067-3.2 17.067h-36.267v195.2c0 3.2-8.533 3.2-16 3.2s-14.933 0-17.067-3.2l-130.133-203.733c-1.067-2.133-2.133-4.267-2.133-13.867 0-8.533 0-11.733 2.133-11.733h124.8v-57.6c0-3.2 11.733-3.2 19.2-3.2s18.133 0 18.133 3.2v57.6h37.333zM705.067 487.467c0-41.6-28.8-56.533-65.067-56.533-35.2 0-66.133 16-66.133 56.533v125.867c0 40.533 36.267 53.333 66.133 53.333 19.2 0 44.8-6.4 65.067-16 4.267-2.133 17.067 29.867 12.8 32-21.333 9.6-51.2 17.067-80 17.067-59.733 0-103.467-22.4-103.467-85.333v-134.4c0-51.2 37.333-82.133 104.533-82.133 66.133 0 104.533 30.933 104.533 87.467v77.867h-93.867c-3.2 0-3.2-9.6-3.2-17.067 0-8.533 0-17.067 3.2-17.067h55.467v-41.6z" />
<glyph unicode="&#xe93d;" glyph-name="Coverage3" d="M418.133 497.067v130.133l-81.067-130.133zM520.533 958.933c-230.4 0-418.133-187.733-418.133-418.133s418.133-603.733 418.133-603.733 418.133 373.333 418.133 603.733c0 230.4-186.667 418.133-418.133 418.133zM492.8 464h-36.267v-57.6c0-3.2-10.667-3.2-18.133-3.2s-19.2 0-19.2 3.2v57.6h-124.8c-2.133 0-2.133 3.2-2.133 11.733s0 10.667 2.133 13.867l129.067 203.733c2.133 3.2 9.6 3.2 17.067 3.2s16 0 16-3.2v-196.267h36.267c3.2 0 3.2-8.533 3.2-17.067 0-7.467 0-16-3.2-16zM749.867 486.4c0-56.533-38.4-87.467-104.533-87.467-67.2 0-104.533 30.933-104.533 82.133v133.333c0 62.933 43.733 85.333 103.467 85.333 28.8 0 59.733-7.467 80-17.067 4.267-2.133-8.533-34.133-12.8-32-21.333 9.6-45.867 16-65.067 16-29.867 0-66.133-12.8-66.133-53.333v-124.8c0-40.533 30.933-56.533 66.133-56.533 36.267 0 65.067 14.933 65.067 56.533v42.667h-55.467c-3.2 0-3.2 8.533-3.2 17.067 0 7.467 0 17.067 3.2 17.067h93.867v-78.933z" />
<glyph unicode="&#xe93e;" glyph-name="Tablet" d="M838.4 91.733h-629.333v770.133h630.4v-770.133zM483.2 14.933c0 22.4 18.133 40.533 40.533 40.533s40.533-18.133 40.533-40.533c0-22.4-18.133-40.533-40.533-40.533s-40.533 18.133-40.533 40.533zM880 26.667v840.533c0 0 0 88.533-88.533 88.533h-535.467c0 0-88.533 0-88.533-88.533v-840.533c0 0 0-88.533 88.533-88.533h535.467c0 0 88.533 0 88.533 88.533z" />
<glyph unicode="&#xe93f;" glyph-name="Piggy" d="M1022.933 540.8v-162.133c0-16-12.8-29.867-29.867-29.867h-38.4c-25.6-58.667-70.4-110.933-129.067-150.4 5.333-8.533 9.6-17.067 11.733-25.6 7.467-48-25.6-92.8-73.6-100.267-42.667-6.4-82.133 18.133-96 56.533-40.533-9.6-84.267-14.933-130.133-14.933-46.933 0-92.8 6.4-135.467 17.067-13.867-39.467-54.4-65.067-97.067-58.667-48 7.467-81.067 52.267-73.6 100.267 1.067 8.533 6.4 18.133 12.8 27.733-90.667 64-148.267 155.733-148.267 258.133 0 49.067 12.8 96 37.333 137.6-32 17.067-65.067-21.333-102.4-1.067-22.4 11.733-42.667 40.533-21.333 80 10.667 20.267 26.667 33.067 40.533 41.6 3.2 2.133 24.533-26.667 20.267-28.8-11.733-6.4-22.4-14.933-27.733-25.6-6.4-11.733-3.2-26.667 10.667-34.133 27.733-14.933 54.4 19.2 93.867-2.133l4.267-2.133c74.667 106.667 219.733 179.2 386.133 179.2 59.733 0 117.333-9.6 169.6-26.667 1.067 1.067 2.133 3.2 4.267 4.267 48 48 213.333 38.4 213.333 38.4s4.267-104.533-18.133-171.733c20.267-23.467 36.267-50.133 48-77.867h38.4c16 0 29.867-12.8 29.867-28.8zM425.6 742.4c70.4 14.933 146.133 14.933 216.533 1.067 6.4-1.067 11.733 3.2 12.8 8.533 1.067 6.4-3.2 11.733-8.533 12.8-73.6 14.933-152.533 13.867-225.067-1.067-6.4-1.067-9.6-7.467-8.533-12.8s5.333-8.533 10.667-8.533c1.067 0 1.067 0 2.133 0zM837.333 505.6c23.467 0 42.667 19.2 42.667 42.667s-19.2 42.667-42.667 42.667c-23.467 0-42.667-19.2-42.667-42.667s19.2-42.667 42.667-42.667z" />
<glyph unicode="&#xe940;" glyph-name="Cloud" d="M913.067 444.8c0 3.2 1.067 6.4 1.067 9.6 0 101.333-82.133 183.467-183.467 183.467-28.8 0-55.467-7.467-80-19.2-24.533 94.933-109.867 165.333-212.267 165.333-121.6 0-219.733-98.133-219.733-219.733 0-25.6 4.267-50.133 12.8-73.6h-49.067c-101.333 0-182.4-81.067-182.4-182.4s82.133-182.4 182.4-182.4h677.333c90.667 0 164.267 73.6 164.267 164.267 0 71.467-46.933 132.267-110.933 154.667z" />
<glyph unicode="&#xe941;" glyph-name="TabletMobile" d="M641.067 165.333v-140.8h-465.067c-81.067 0-81.067 81.067-81.067 81.067v772.267c0 81.067 81.067 81.067 81.067 81.067h491.733c81.067 0 81.067-81.067 81.067-81.067v-445.867h-37.333v440.533h-579.2v-708.267l508.8 1.067zM391.467 94.933c0-17.067 13.867-30.933 30.933-30.933s30.933 13.867 30.933 30.933c0 17.067-13.867 30.933-30.933 30.933s-30.933-13.867-30.933-30.933zM869.333 491.733c34.133 0 58.667-23.467 58.667-58.667v-436.267c0-34.133-23.467-58.667-58.667-58.667h-194.133c-34.133 0-58.667 23.467-58.667 58.667v436.267c0 34.133 23.467 58.667 58.667 58.667h194.133zM772.267-41.6c10.667 0 20.267 8.533 20.267 20.267 0 10.667-8.533 20.267-20.267 20.267-10.667 0-20.267-8.533-20.267-20.267 0-10.667 8.533-20.267 20.267-20.267zM641.067 19.2h260.267v412.8h-260.267v-412.8z" />
<glyph unicode="&#xe942;" glyph-name="Hotline" d="M949.333 534.4v49.067c0 21.333-22.4 37.333-52.267 40.533-28.8 188.8-188.8 334.933-381.867 334.933s-353.067-146.133-382.933-334.933c-28.8-2.133-52.267-19.2-52.267-40.533v-49.067c-32 0-57.6-18.133-57.6-40.533v-184.533c0-22.4 25.6-40.533 57.6-40.533v-49.067c0-22.4 25.6-40.533 57.6-40.533h52.267c32 0 57.6 18.133 57.6 40.533v363.733c0 19.2-19.2 35.2-45.867 39.467 29.867 151.467 158.933 265.6 313.6 265.6s283.733-114.133 311.467-265.6c-25.6-4.267-45.867-20.267-45.867-39.467v-363.733c0-22.4 25.6-40.533 57.6-40.533h1.067c-3.2-167.467-27.733-173.867-211.2-173.867-3.2 11.733-10.667 19.2-19.2 19.2h-187.733c-11.733 0-21.333-13.867-21.333-29.867v-26.667c0-16 9.6-29.867 21.333-29.867h187.733c7.467 0 12.8 5.333 17.067 12.8 211.2 1.067 259.2 21.333 267.733 229.333 30.933 1.067 55.467 18.133 55.467 40.533v49.067c32 0 57.6 18.133 57.6 40.533v183.467c1.067 22.4-25.6 40.533-57.6 40.533z" />
<glyph unicode="&#xe943;" glyph-name="Hosting" d="M238.933 558.933v-288c0 0 1.067-64 62.933-64h120.533v230.4h122.667v-230.4h180.267c64 0 64 62.933 64 64 0 0 0 288 0 288h98.133l-373.333 397.867-373.333-397.867h98.133zM589.867 11.733c0-41.6-33.067-74.667-74.667-74.667-40.533 0-74.667 33.067-74.667 74.667 0 40.533 33.067 74.667 74.667 74.667s74.667-33.067 74.667-74.667zM388.267 11.733c0-41.6-33.067-74.667-74.667-74.667-40.533 0-74.667 33.067-74.667 74.667 0 40.533 33.067 74.667 74.667 74.667s74.667-33.067 74.667-74.667zM790.4 11.733c0-41.6-33.067-74.667-74.667-74.667-40.533 0-74.667 33.067-74.667 74.667 0 40.533 33.067 74.667 74.667 74.667s74.667-33.067 74.667-74.667z" />
<glyph unicode="&#xe944;" glyph-name="Document2" d="M701.867 960h-546.133v-1024h750.933v819.2l-204.8 204.8zM838.4 4.267h-614.4v887.467h409.6v-204.8h204.8c0 0 0-682.667 0-682.667zM666.667 482.133h-270.933c-19.2 0-35.2 16-35.2 35.2s16 35.2 35.2 35.2h270.933c19.2 0 35.2-16 35.2-35.2s-16-35.2-35.2-35.2zM666.667 342.4h-270.933c-19.2 0-35.2 16-35.2 35.2s16 35.2 35.2 35.2h270.933c19.2 0 35.2-16 35.2-35.2s-16-35.2-35.2-35.2zM666.667 202.667h-270.933c-19.2 0-35.2 16-35.2 35.2s16 35.2 35.2 35.2h270.933c19.2 0 35.2-16 35.2-35.2s-16-35.2-35.2-35.2z" />
<glyph unicode="&#xe945;" glyph-name="Document3" d="M706.133 960h-546.133v-1024h750.933v819.2l-204.8 204.8zM842.667 4.267h-614.4v887.467h409.6v-204.8h204.8c0 0 0-682.667 0-682.667zM670.933 482.133h-270.933c-19.2 0-35.2 16-35.2 35.2s16 35.2 35.2 35.2h270.933c19.2 0 35.2-16 35.2-35.2s-14.933-35.2-35.2-35.2zM670.933 342.4h-270.933c-19.2 0-35.2 16-35.2 35.2s16 35.2 35.2 35.2h270.933c19.2 0 35.2-16 35.2-35.2s-14.933-35.2-35.2-35.2zM670.933 202.667h-270.933c-19.2 0-35.2 16-35.2 35.2s16 35.2 35.2 35.2h270.933c19.2 0 35.2-16 35.2-35.2s-14.933-35.2-35.2-35.2z" />
<glyph unicode="&#xe946;" glyph-name="CreditCard" horiz-adv-x="1820" d="M1371.022 753.114h-920.557c-29.867-1.043-50.157-21.333-50.157-51.2v-548.314c1.043-29.867 21.333-50.157 51.2-50.157h920.557c29.867 1.043 50.157 21.333 50.157 51.2v548.314c-1.043 29.867-22.376 50.157-51.2 50.157zM450.465 705.043l921.6-2.086v-107.71h-921.6v109.796zM1369.979 153.6l-921.6 1.043 1.043 326.353h922.643l1.043-327.49c0 0.095-1.043 0.095-3.129 0.095z" />
<glyph unicode="&#xe947;" glyph-name="Mobility" d="M293.333 707.2l50.133-49.067 142.933 142.933v-356.267h70.4v356.267l142.933-142.933 49.067 49.067-227.2 227.2zM712.533-41.6l-18.133 67.2 195.2 53.333-308.267 177.067 35.2 60.8 308.267-178.133-52.267 196.267 67.2 18.133 83.2-311.467zM313.6-41.6l17.067 67.2-195.2 53.333 308.267 177.067-34.133 60.8-308.267-178.133 52.267 196.267-68.267 18.133-83.2-311.467z" />
<glyph unicode="&#xe948;" glyph-name="Router" d="M946.133 554.667h-656v185.6c0 20.267-16 36.267-36.267 36.267s-36.267-16-36.267-36.267v-185.6h-139.733c0 0-77.867 0-77.867-77.867v-179.2c0 0 0-77.867 77.867-77.867h868.267c0 0 77.867 0 77.867 77.867v179.2c0 0 0 77.867-77.867 77.867zM969.6 274.133h-915.2v226.133h915.2v-226.133zM765.867 387.2c0-28.8-23.467-52.267-52.267-52.267s-52.267 23.467-52.267 52.267c0 28.8 23.467 52.267 52.267 52.267s52.267-23.467 52.267-52.267zM624 387.2c0-28.8-23.467-52.267-52.267-52.267s-52.267 23.467-52.267 52.267c0 28.8 23.467 52.267 52.267 52.267s52.267-23.467 52.267-52.267zM908.8 387.2c0-28.8-23.467-52.267-52.267-52.267s-52.267 23.467-52.267 52.267c0 28.8 23.467 52.267 52.267 52.267s52.267-23.467 52.267-52.267z" />
<glyph unicode="&#xe949;" glyph-name="MobileWifi" d="M1026.133 206.933c0-77.867-77.867-77.867-77.867-77.867h-868.267c-77.867 0-77.867 77.867-77.867 77.867v179.2c0 77.867 77.867 77.867 77.867 77.867h868.267c77.867 0 77.867-77.867 77.867-77.867v-179.2zM56.533 183.467h915.2v226.133h-915.2v-226.133zM768 296.533c0-28.8-23.467-52.267-52.267-52.267s-52.267 23.467-52.267 52.267c0 28.8 23.467 52.267 52.267 52.267s52.267-23.467 52.267-52.267zM626.133 296.533c0-28.8-23.467-52.267-52.267-52.267s-52.267 23.467-52.267 52.267c0 28.8 23.467 52.267 52.267 52.267s52.267-23.467 52.267-52.267zM910.933 296.533c0-28.8-23.467-52.267-52.267-52.267s-52.267 23.467-52.267 52.267c0 28.8 23.467 52.267 52.267 52.267 27.733 0 52.267-23.467 52.267-52.267zM748.8 535.467l-32 192 40.533 7.467 24.533-149.333 140.8 26.667 6.4-42.667zM811.733 634.667l-22.4 134.4 39.467 8.533 16-92.8 86.4 17.067 7.467-43.733z" />
<glyph unicode="&#xe94a;" glyph-name="Small" d="M849.067 230.4c0 157.867-116.267 232.533-276.267 302.933-93.867 41.6-199.467 82.133-199.467 178.133 0 78.933 56.533 133.333 165.333 133.333 83.2 0 170.667-30.933 226.133-60.8 14.933-8.533 59.733 102.4 44.8 108.8-73.6 37.333-163.2 67.2-269.867 67.2-199.467 0-299.733-114.133-299.733-251.733 0-158.933 122.667-221.867 245.333-281.6 122.667-57.6 226.133-93.867 226.133-205.867 0-104.533-76.8-165.333-194.133-165.333-91.733 0-201.6 56.533-251.733 91.733-13.867 9.6-71.467-101.333-57.6-109.867 68.267-45.867 184.533-98.133 312.533-98.133 189.867 0 328.533 115.2 328.533 291.2z" />
<glyph unicode="&#xe94b;" glyph-name="Medium" d="M947.2-51.2v993.067c0 10.667-39.467 10.667-97.067 10.667-56.533 0-82.133 0-86.4-10.667l-160-545.067c-37.333-123.733-61.867-220.8-83.2-331.733-23.467 110.933-48 208-83.2 327.467l-165.333 548.267c-4.267 12.8-54.4 12.8-90.667 12.8-35.2 0-91.733 0-91.733-10.667v-993.067c0-10.667 34.133-10.667 61.867-10.667s62.933 0 62.933 10.667v636.8c0 62.933-3.2 131.2-8.533 197.333h1.067l246.4-834.133c3.2-10.667 35.2-10.667 62.933-10.667s61.867 0 64 10.667l248.533 833.067h3.2c-6.4-64-8.533-134.4-8.533-197.333v-635.733c0-10.667 35.2-10.667 62.933-10.667 27.733-1.067 60.8-1.067 60.8 9.6z" />
<glyph unicode="&#xe94c;" glyph-name="Large" d="M832 0c0 27.733-3.2 61.867-10.667 61.867h-421.333v883.2c0 10.667-40.533 10.667-69.333 10.667-27.733 0-68.267 0-68.267-10.667v-1009.067h558.933c8.533 0 10.667 34.133 10.667 64z" />
<glyph unicode="&#xe94d;" glyph-name="add" d="M455.111 960h113.778v-1024h-113.778v1024zM0 504.889h1024v-113.778h-1024v113.778z" />
<glyph unicode="&#xe94e;" glyph-name="arrow-down" d="M509.156 362.667c0 0 0 0 0 0-5.689 0-8.533 2.844-8.533 2.844s-2.844 0-2.844 0c0 0 0 0 0 0l-136.533 130.844c-8.533 8.533-8.533 19.911 0 25.6 8.533 8.533 19.911 8.533 28.444 0l122.311-113.778 122.311 119.467c8.533 8.533 19.911 8.533 28.444 0s8.533-19.911 0-25.6l-136.533-130.844c0 0 0 0 0 0-5.689-8.533-11.378-8.533-17.067-8.533z" />
<glyph unicode="&#xe94f;" glyph-name="arrow-next" d="M541.225 455.767c-0.325 3.179-0.795 5.816-1.626 8.815-2.384 7.803-6.177 15.028-11.524 21.639-1.481 2.131-1.481 4.841-3.504 6.792-1.192 1.012-2.782 1.517-4.082 2.601l-438.558 437.655c-52.020 52.056-114.336-10.043-62.352-61.882l427.793-423.241-427.793-423.385c-51.984-51.948 10.332-114.011 62.352-62.135l438.486 437.799c1.409 0.975 2.998 1.409 4.191 2.782 14.306 14.269 19.219 33.705 16.618 52.562z" />
<glyph unicode="&#xe950;" glyph-name="arrow-prev" d="M0.65 440.269c0.325-3.179 0.795-5.816 1.626-8.815 2.384-7.803 6.177-15.028 11.524-21.675 1.517-2.131 1.517-4.805 3.504-6.792 1.192-1.048 2.782-1.553 4.082-2.601l438.594-437.655c51.984-52.056 114.372 10.007 62.352 61.882l-427.793 423.277 427.756 423.349c52.020 51.912-10.332 114.011-62.352 62.135l-438.449-437.799c-1.409-0.975-2.998-1.409-4.191-2.782-14.306-14.269-19.219-33.705-16.654-52.526z" />
<glyph unicode="&#xe951;" glyph-name="arrow-up" d="M512 533.333c5.689 0 8.533-2.844 14.222-5.689l136.533-136.533c8.533-8.533 8.533-19.911 0-25.6s-19.911-8.533-25.6 0l-136.533 136.533c-8.533 8.533-8.533 19.911 0 25.6 2.844 2.844 5.689 5.689 11.378 5.689zM512 533.333c5.689 0 8.533-2.844 14.222-5.689 8.533-8.533 8.533-19.911 0-25.6l-139.378-139.378c-8.533-8.533-19.911-8.533-25.6 0s-8.533 19.911 0 25.6l136.533 136.533c5.689 5.689 8.533 8.533 14.222 8.533z" />
<glyph unicode="&#xe952;" glyph-name="basket" d="M576 105.664c11.787 0 21.333 18.997 21.333 42.421v169.749c0 23.413-9.547 42.421-21.333 42.421s-21.333-18.987-21.333-42.421v-169.749c0-23.413 9.547-42.421 21.333-42.421zM704 105.664c11.787 0 21.333 18.997 21.333 42.421v169.749c0 23.413-9.547 42.421-21.333 42.421s-21.333-18.987-21.333-42.421v-169.749c0-23.413 9.547-42.421 21.333-42.421zM554.667 533.333v214.037c0 23.424-19.083 41.963-42.667 41.963-23.541 0-42.667-18.539-42.667-41.963v-214.037h-469.333v-426.667c0-93.579 76.587-170.667 170.667-170.667h682.667c94.123 0 170.667 77.088 170.667 170.667v426.667h-469.333zM938.667 106.667c0-46.752-38.251-85.835-85.333-85.835h-682.667c-47.040 0-85.333 39.083-85.333 85.835v341.333h853.333v-341.333zM448 105.664c11.787 0 21.333 18.997 21.333 42.421v169.749c0 23.413-9.547 42.421-21.333 42.421s-21.333-18.987-21.333-42.421v-169.749c0-23.413 9.547-42.421 21.333-42.421zM320 105.664c11.787 0 21.333 18.997 21.333 42.421v169.749c0 23.413-9.547 42.421-21.333 42.421s-21.333-18.987-21.333-42.421v-169.749c0-23.413 9.547-42.421 21.333-42.421z" />
<glyph unicode="&#xe953;" glyph-name="bullet-check-negative" d="M512 960c-284.444 0-512-227.556-512-512s227.556-512 512-512c284.444 0 512 227.556 512 512s-227.556 512-512 512zM750.933 590.222l-244.622-375.467-11.378-11.378-11.378-5.689h-22.756l-5.689 5.689h-5.689l-5.689 5.689-142.222 130.844c-17.067 17.067-17.067 45.511 0 62.578s45.511 17.067 62.578 0l102.4-96.711 216.178 329.956c11.378 22.756 39.822 28.444 62.578 11.378 17.067-11.378 22.756-34.133 5.689-56.889z" />
<glyph unicode="&#xe954;" glyph-name="bullet-disc" d="M512 704c140.8 0 256-115.2 256-256s-115.2-256-256-256-256 115.2-256 256c0 64 25.6 128 76.8 179.2 38.4 51.2 102.4 76.8 179.2 76.8z" />
<glyph unicode="&#xe955;" glyph-name="bullet-rev" d="M627.2-64c25.6-25.6 217.6 76.8 192 102.4l-345.6 409.6 358.4 409.6c25.6 25.6-179.2 128-192 89.6l-435.2-499.2 422.4-512z" />
<glyph unicode="&#xe956;" glyph-name="bullet" horiz-adv-x="640" d="M199.456-59.616c-19.573-26.613-217.536 75.669-198.101 97.76l362.539 409.355-362.539 412.053c-19.435 22.112 175.68 124.267 198.101 95.317l440.544-507.509-440.544-506.976z" />
<glyph unicode="&#xe957;" glyph-name="calendar" horiz-adv-x="1097" d="M151.885 960h818.22v-137.187h-818.22v137.187zM151.885 754.22v-818.22h818.22v818.22h-818.22zM426.258 73.187h-137.187v137.187h137.187v-137.187zM426.258 278.967h-137.187v137.187h137.187v-137.187zM426.258 484.746h-137.187v132.287h137.187v-132.287zM627.139 73.187h-137.187v137.187h137.187v-137.187zM627.139 278.967h-137.187v137.187h137.187v-137.187zM627.139 484.746h-137.187v132.287h137.187v-132.287zM832.919 73.187h-137.187v137.187h137.187v-137.187zM832.919 278.967h-137.187v137.187h137.187v-137.187zM832.919 484.746h-137.187v132.287h137.187v-132.287z" />
<glyph unicode="&#xe958;" glyph-name="chat" horiz-adv-x="1100" d="M375.818-64v236.964h-201.515c-96.1 0-174.303 78.154-174.303 174.303v438.43c0 96.1 78.203 174.303 174.303 174.303h751.636c96.1 0 174.303-78.203 174.303-174.303v-438.381c0-96.149-78.203-174.352-174.303-174.352h-234.218l-315.903-236.964zM174.303 861.939c-42.068 0-76.242-34.223-76.242-76.242v-438.381c0-42.019 34.174-76.291 76.242-76.291h299.576v-138.903l185.139 138.903h266.872c42.019 0 76.242 34.223 76.242 76.291v438.381c0 42.019-34.174 76.242-76.193 76.242h-751.636z" />
<glyph unicode="&#xe959;" glyph-name="check_list" horiz-adv-x="791" d="M0 879.838h791.919l-321.939-545.487v-321.81l-149.333 109.382v212.428z" />
<glyph unicode="&#xe95a;" glyph-name="check-grey" horiz-adv-x="1316" d="M1165.468 960l150.148-131.392-778.974-892.608-150.248 134.585zM656.987 99.016l-131.352-150.208-525.69 459.7 131.352 150.208 525.69-459.7z" />
<glyph unicode="&#xe95b;" glyph-name="check-white" horiz-adv-x="1316" d="M1165.468 960l150.148-131.392-778.974-892.608-150.248 134.585zM656.987 99.016l-131.352-150.208-525.69 459.7 131.352 150.208 525.69-459.7z" />
<glyph unicode="&#xe95c;" glyph-name="check" horiz-adv-x="1396" d="M1210.182 941.382c-46.545 27.927-102.4 18.618-139.636-27.927l-474.764-726.109-223.418 214.109c-46.545 37.236-102.4 37.236-139.636-9.309-37.236-37.236-37.236-102.4 0-139.636l316.509-288.582 18.618-18.618 18.618-9.309h55.855l27.927 9.309 18.618 9.309 9.309 9.309 539.927 828.509c27.927 65.164 18.618 121.018-27.927 148.945z" />
<glyph unicode="&#xe95d;" glyph-name="clear" d="M512-64c-282.769 0-512 229.231-512 512s229.231 512 512 512c282.769 0 512-229.231 512-512s-229.231-512-512-512zM512 896c-247.424 0-448-200.576-448-448s200.576-448 448-448c247.424 0 448 200.576 448 448s-200.576 448-448 448zM726.865 233.135c-12.203-12.203-31.991-12.203-44.19 0l-170.675 170.671-170.675-170.671c-12.198-12.203-31.987-12.203-44.19 0-12.207 12.203-12.207 31.987 0 44.19l170.671 170.675-170.671 170.671c-12.207 12.207-12.207 31.991 0 44.194 12.203 12.203 31.991 12.203 44.19 0l170.675-170.671 170.675 170.671c12.198 12.203 31.987 12.203 44.19 0 12.207-12.203 12.207-31.987 0-44.194l-170.671-170.671 170.671-170.675c12.207-12.203 12.207-31.987 0-44.19z" />
<glyph unicode="&#xe95e;" glyph-name="close-expand" d="M153.6 89.6c-197.939 197.939-197.944 518.856 0 716.8 197.934 197.934 518.861 197.939 716.8 0s197.934-518.866 0-716.8c-197.944-197.944-518.861-197.939-716.8 0zM780.8 716.8c-148.454 148.454-389.146 148.454-537.6 0s-148.454-389.146 0-537.6c148.454-148.454 389.146-148.454 537.6 0s148.454 389.146 0 537.6zM368.64 232.96l-71.68 71.68 143.36 143.36-143.36 143.36 71.68 71.68 143.36-143.36 143.36 143.36 71.68-71.68-143.36-143.36 143.36-143.36-71.68-71.68-143.36 143.36-143.36-143.36z" />
<glyph unicode="&#xe95f;" d="M512.037 905.139c252.105 0 457.176-205.071 457.176-457.176 0-252.068-205.071-457.139-457.176-457.139-252.068 0-457.176 205.071-457.176 457.139 0 252.105 205.071 457.176 457.176 457.176zM512.037 960c-282.79 0-512.037-229.246-512.037-512.037s229.21-512 512.037-512c282.754 0 512.037 229.246 512.037 512s-229.319 512.037-512.037 512.037v0z" />
<glyph unicode="&#xe960;" d="M679.326 406.891c8.778-6.656-24.943-74.172-32.222-67.552l-135.361 123.62-135.361-123.62c-7.278-6.656-40.963 59.908-31.417 67.552l166.814 150.246 167.546-150.246z" />
<glyph unicode="&#xe961;" glyph-name="drag" d="M622.277 270.769v350.523c0 11.815 11.815 19.692 23.631 19.692s23.631-7.877 23.631-19.692v-350.523c0-11.815-11.815-19.692-23.631-19.692-7.877 0-23.631 7.877-23.631 19.692zM488.369 270.769v350.523c0 11.815 11.815 19.692 23.631 19.692 11.815 3.938 19.692-7.877 19.692-19.692v-350.523c0-11.815-11.815-19.692-23.631-19.692s-19.692 7.877-19.692 19.692zM350.523 270.769v350.523c0 11.815 11.815 19.692 23.631 19.692s23.631-7.877 23.631-19.692v-350.523c0-11.815-11.815-19.692-23.631-19.692s-23.631 7.877-23.631 19.692z" />
<glyph unicode="&#xe962;" glyph-name="dropdown" horiz-adv-x="1877" d="M85.333 750.251c0-53.931 21.504-107.861 64.683-148.992l634.539-604.331c85.333-81.408 223.061-81.408 308.395 0l634.539 604.331c85.845 81.749 86.357 214.528 1.195 296.789-85.333 82.261-224.085 82.603-309.76 1.024l-480.256-457.557-480.256 457.557c-85.845 81.579-224.427 81.237-309.419-1.024-42.496-40.96-63.659-94.549-63.659-147.797z" />
<glyph unicode="&#xe963;" glyph-name="error-no-bg" d="M463.152 294.219l-43.42 459.534v206.247h184.537v-213.484l-43.42-452.297h-97.696zM423.35 62.643v173.682h173.682v-173.682h-173.682z" />
<glyph unicode="&#xe964;" glyph-name="error-xl-white" d="M469.333 192l-53.333 522.773v245.227h201.611v-245.76l-52.277-522.24h-96zM416-64v202.667h202.667v-202.667h-202.667z" />
<glyph unicode="&#xe965;" d="M995.053 446.191c0-267.76-217.102-484.862-484.862-484.862s-484.862 217.102-484.862 484.862c0 267.76 217.102 484.862 484.862 484.862s484.862-217.102 484.862-484.862z" />
<glyph unicode="&#xe966;" d="M477.625 290.601l-28.947 303.943v137.498h123.025v-141.117l-28.947-300.325h-65.131zM452.297 138.629v115.788h115.788v-115.788h-115.788z" />
<glyph unicode="&#xe967;" glyph-name="facebook-squared" d="M937.159 952.763h-846.7c-43.42 0-79.604-36.184-79.604-79.604v-846.7c0-43.42 36.184-79.604 79.604-79.604h405.258v398.021h-83.223v133.88h83.223v94.078c3.618 86.841 32.565 170.064 170.064 177.3v0h108.551v-133.88h-86.841c-25.329 0-43.42-25.329-43.42-54.276v-83.223h130.261l-21.71-133.88h-108.551v-401.64h293.088c43.42 0 79.604 36.184 79.604 79.604v846.7c0 47.039-36.184 83.223-79.604 83.223z" />
<glyph unicode="&#xe968;" glyph-name="facebook" d="M512.037 960c-282.827 0-512.037-229.246-512.037-512.037s229.21-512 512.037-512c282.681 0 512 229.173 512 512 0 282.79-229.319 512.037-512 512.037zM713.962 622.239h-65.468c-20.774 0-35.331-17.665-35.331-39.5v-61.262h100.798l-16.641-98.75h-84.157v-300.236h-117.476v300.236h-65.431v98.75h65.431v68.54h0.256c1.975 64.882 24.505 126.619 134.373 130.496v0.402h83.645v-98.677z" />
<glyph unicode="&#xe969;" glyph-name="gplus" d="M410.361 391.164c-65.724 0.731-124.681-39.573-124.681-87.924 0-49.302 47.51-90.374 113.306-90.374 92.459 0 124.681 38.512 124.681 87.851 0 5.925-0.731 11.777-2.085 17.373-7.205 28.016-32.807 41.877-68.54 66.345-12.984 4.169-27.321 6.583-42.682 6.73zM388.636 698.678c-44.145 1.28-73.733-33.282-66.089-90.521 7.607-57.165 49.521-104.675 93.739-105.882 44.145-1.28 73.733 43.999 66.162 101.2-7.681 57.165-49.668 93.886-93.812 95.202zM512 960c-282.79 0-512-229.246-512-512s229.21-512 512-512c282.681 0 512.037 229.173 512.037 512 0 282.754-229.319 512-512.037 512zM544.039 594.955c0-35.696-20.079-54.605-48.424-76.44-27.613-21.359-32.88-30.247-32.88-48.387 0-15.434 29.698-41.731 45.096-52.593 45.279-31.563 60.018-61.847 60.018-110.856 0-61.079-60.018-122.779-168.46-122.779-95.202 0-175.482 36.281-175.482 97.36 0 61.993 73.258 117.878 168.35 117.878 10.424 0 19.933 0 29.771 0-12.984 12.581-23.371 30.942-23.371 49.777 0 11.228 3.657 24.578 8.705 34.16-5.23-0.439-10.497-2.999-15.946-2.999-78.122 0-130.533 49.96-130.533 118.024 0 66.455 72.307 114.074 149.186 114.074 42.865 0 171.423 0 171.423 0l-38.366-31.307h-54.312c36.025 0 55.227-43.377 55.227-85.912zM800.203 586.945h-87.449v-88.399h-40.926v88.399h-87.449v37.232h87.449v87.302h40.926v-87.302h87.449v-37.232z" />
<glyph unicode="&#xe96a;" glyph-name="hamburger-menu" horiz-adv-x="1669" d="M0 866.911c0 53.316 43.949 93.089 98.164 93.089h1472.413c54.215 0 98.164-39.773 98.164-93.089 0-53.32-43.949-96.54-98.164-96.54h-1472.413c-54.215 0-98.164 43.22-98.164 96.54zM0 466.963c0 53.316 43.949 75.852 98.164 75.852h1472.413c54.215 0 98.164-22.536 98.164-75.852 0-53.32-43.949-113.778-98.164-113.778h-1472.413c-54.215 0-98.164 60.458-98.164 113.778zM0 29.089c0 53.32 43.949 96.54 98.164 96.54h1472.413c54.215 0 98.164-43.22 98.164-96.54 0-53.316-43.949-93.089-98.164-93.089h-1472.413c-54.215 0-98.164 39.773-98.164 93.089z" />
<glyph unicode="&#xe96b;" glyph-name="headphones" d="M520.781 947.2c-280.115 0-507.981-227.866-507.981-507.981s227.866-507.981 507.981-507.981 507.981 227.866 507.981 507.981-227.891 507.981-507.981 507.981zM520.781-43.162c-265.984 0-482.381 216.422-482.381 482.381 0 265.984 216.397 482.381 482.381 482.381s482.381-216.397 482.381-482.381c0-265.958-216.422-482.381-482.381-482.381zM768.87 496.794v29.491c0 12.467-13.594 22.656-31.027 24.013-17.69 113.766-113.792 201.088-229.683 201.088-115.866 0-211.968-87.322-229.683-201.088-17.408-1.331-31.027-11.52-31.027-24.013v-29.491c-19.226 0-34.816-10.854-34.816-24.269v-110.95c0-13.414 15.59-24.269 34.816-24.269v-29.491c0-13.363 15.59-24.243 34.816-24.243h31.36c19.226 0 34.842 10.88 34.842 24.243v218.496c0 11.597-11.725 21.274-27.341 23.654 16.998 90.547 94.362 159.155 187.059 159.155 92.723 0 170.086-68.608 187.085-159.13-15.642-2.381-27.392-12.083-27.392-23.68v-218.496c0-13.363 15.616-24.243 34.842-24.243h0.589c-2.202-100.25-16.691-104.166-127.053-104.55-1.766 6.81-6.272 11.699-11.648 11.699h-112.87c-6.938 0-12.544-8.064-12.544-17.997v-16.205c0-9.958 5.606-17.997 12.544-17.997h112.87c4.198 0 7.731 3.149 10.010 7.68 127.002 0.845 155.802 12.826 160.947 137.472 18.509 0.563 33.331 11.136 33.331 24.141v29.491c19.226 0 34.816 10.854 34.816 24.269v110.95c0 13.414-15.616 24.269-34.842 24.269z" />
<glyph unicode="&#xe96d;" glyph-name="input-radio-selected" d="M0 448c0 282.778 229.235 512 512 512s512-229.222 512-512c0-282.778-229.235-512-512-512s-512 229.222-512 512z" />
<glyph unicode="&#xe96e;" glyph-name="lightbulb" d="M590.769 176.246h-157.538c-11.815 0-19.692-7.877-19.692-19.692s7.877-19.692 19.692-19.692h157.538c11.815 0 19.692 7.877 19.692 19.692s-7.877 19.692-19.692 19.692zM586.831 113.231h-149.662c-11.815 0-19.692-7.877-19.692-19.692s7.877-19.692 19.692-19.692h149.662c11.815 0 19.692 7.877 19.692 19.692s-7.877 19.692-19.692 19.692zM437.169 46.277c39.385-35.446 43.323-43.323 59.077-43.323h31.508c15.754 0 19.692 7.877 59.077 43.323h-149.662zM736.492 522.831c0-133.908-114.215-208.738-114.215-315.077h-51.2c0 129.969 114.215 200.862 114.215 315.077 0 216.615-342.646 216.615-342.646 0 0-114.215 114.215-181.169 114.215-315.077h-55.138c0 106.338-114.215 181.169-114.215 315.077 0 287.508 448.985 287.508 448.985 0zM539.569 794.585h-55.138v98.462h55.138v-98.462zM724.677 841.846l-47.262 27.569-47.262-90.585 47.262-23.631 47.262 86.646zM862.523 707.938l-31.508 43.323-86.646-63.015 31.508-43.323 86.646 63.015zM874.338 365.292l-98.462 39.385-19.692-51.2 98.462-39.385 19.692 51.2zM905.846 558.277h-110.277v-55.138h110.277v55.138zM393.846 778.831l-47.262 86.646-47.262-23.631 47.262-86.646 47.262 23.631zM279.631 688.246l-86.646 63.015-31.508-43.323 86.646-63.015 31.508 43.323zM267.815 361.354l-19.692 47.262-98.462-43.323 23.631-51.2 94.523 47.262zM228.431 558.277h-110.277v-55.138h110.277v55.138z" />
<glyph unicode="&#xe96f;" glyph-name="list-collapse" d="M512-64c-283.569 0-512 232.369-512 512s228.431 512 512 512 512-228.431 512-512-232.369-512-512-512zM512 857.6c-224.492 0-409.6-185.108-409.6-409.6s185.108-409.6 409.6-409.6 409.6 185.108 409.6 409.6-185.108 409.6-409.6 409.6zM307.2 499.2h409.6c31.508 0 51.2-19.692 51.2-51.2s-23.631-51.2-51.2-51.2h-409.6c-31.508 0-51.2 19.692-51.2 51.2s23.631 51.2 51.2 51.2z" />
<glyph unicode="&#xe970;" glyph-name="list-expand" d="M508.062-60.062c-279.631 0-508.062 228.431-508.062 512s228.431 508.062 508.062 508.062 508.062-228.431 508.062-508.062-224.492-512-508.062-512zM508.062 857.6c-224.492 0-405.662-181.169-405.662-405.662s185.108-409.6 409.6-409.6 409.6 185.108 409.6 409.6-189.046 405.662-413.538 405.662zM307.2 503.138h405.662c31.508 0 51.2-19.692 51.2-51.2s-23.631-51.2-51.2-51.2h-405.662c-31.508 0-51.2 19.692-51.2 51.2s23.631 51.2 51.2 51.2zM559.262 660.677v-413.538c0-23.631-19.692-47.262-51.2-47.262s-51.2 19.692-51.2 47.262v413.538c0 23.631 19.692 47.262 51.2 47.262s51.2-23.631 51.2-47.262z" />
<glyph unicode="&#xe971;" glyph-name="lock" d="M827.077 507.077v149.662c0 169.354-141.785 307.2-319.015 307.2s-315.077-141.785-315.077-307.2v-149.662h-55.138v-571.077h748.308v571.077h-59.077zM275.692 656.738c0 118.154 102.4 224.492 236.308 224.492s232.369-102.4 232.369-224.492v-149.662h-468.677v149.662z" />
<glyph unicode="&#xe972;" glyph-name="minus" d="M278.994 484.125h466.013c19.977 0 36.125-16.22 36.125-36.125 0-19.977-16.148-36.125-36.125-36.125h-466.013c-19.977 0-36.125 16.148-36.125 36.125 0 19.905 16.148 36.125 36.125 36.125z" />
<glyph unicode="&#xe973;" glyph-name="notification" horiz-adv-x="1446" d="M0 718.999h60.235v-421.647h-60.235v421.647zM60.235 658.763l1385.412 301.176v-903.529l-1385.412 301.176zM843.294-64.060h-421.647c-78.246 0-120.471 62.042-120.471 120.471v301.176h120.471v-301.176h421.647v301.176h120.471v-301.176c0-78.246-62.042-120.471-120.471-120.471z" />
<glyph unicode="&#xe974;" glyph-name="pencil" horiz-adv-x="791" d="M0 250.182l197.301-197.818h-197.301v197.818zM494.545 794.246l-445.156-445.156 247.208-247.208 445.026 445.026-247.079 247.337zM494.545 695.208l49.39-49.39-346.117-346.246-49.39 49.39 346.117 346.246zM247.208 250.182l346.246 346.246 49.39-49.39-346.117-346.246-49.519 49.39zM543.547 843.636l247.725-246.82-32.97-33.487-247.337 247.337 32.582 32.97z" />
<glyph unicode="&#xe975;" glyph-name="phone_handset" d="M433.429 365.291c-101.419 102.069-198.24 220.171-151.883 266.912 66.464 66.933 124.352 108.107 6.645 255.531-117.653 147.371-196.064 34.176-260.48-30.624-74.293-74.752-4.053-353.387 269.472-628.832 273.717-275.424 566.816-329.099 624.779-271.573 64.171 64.8 176.704 143.819 30.336 262.283-146.517 118.464-187.403 60.299-253.824-6.571-46.336-46.688-163.755 50.816-265.045 152.875z" />
<glyph unicode="&#xe976;" glyph-name="phone" horiz-adv-x="1142" d="M308.066 803.131c8.192-20.992 33.359-66.521 33.359-66.521l-279.749-147.889-47.931 100.706c0 0-52.618 92.278 48.128 147.023l81.841 45.883c0 0 169.039 77.627 421.061 77.627h8.625c319.646 0 424.763-77.627 424.763-77.627l81.841-45.883c100.746-54.745 48.128-147.023 48.128-147.023l-51.239-100.746-270.297 147.929c0 0 20.126 31.035 33.004 64.079 6.105 15.596 6.538 3.151-1.851 10.594-75.303 66.875-254.543 67.899-254.543 67.899h-18.432c-122.959 0-253.243-58.998-253.243-58.998-6.144-3.82-12.406-0.118-3.466-17.054zM333.982 590.651c42.969 0 77.785-36.313 77.785-81.093 0-44.82-34.816-81.132-77.785-81.132-42.929 0-77.745 36.313-77.745 81.132-0.039 44.78 34.777 81.093 77.745 81.093zM570.014 590.651c42.969 0 77.745-36.313 77.745-81.093 0-44.82-34.816-81.132-77.745-81.132s-77.745 36.313-77.745 81.132c0 44.78 34.816 81.093 77.745 81.093zM806.085 590.651c42.929 0 77.745-36.313 77.745-81.093 0-44.82-34.816-81.132-77.745-81.132-42.969 0-77.785 36.313-77.785 81.132 0 44.78 34.816 81.093 77.785 81.093zM333.982 344.458c42.969 0 77.785-36.313 77.785-81.093s-34.816-81.093-77.785-81.093c-42.929 0-77.745 36.313-77.745 81.093-0.039 44.78 34.777 81.093 77.745 81.093zM570.014 344.458c42.969 0 77.745-36.313 77.745-81.093s-34.816-81.093-77.745-81.093c-42.929 0-77.745 36.313-77.745 81.093s34.816 81.093 77.745 81.093zM806.085 344.458c42.929 0 77.745-36.313 77.745-81.093s-34.816-81.093-77.745-81.093c-42.969 0-77.785 36.313-77.785 81.093s34.816 81.093 77.785 81.093zM333.982 98.225c42.969 0 77.785-36.313 77.785-81.132 0-44.78-34.816-81.132-77.785-81.132-42.929 0-77.745 36.313-77.745 81.132-0.039 44.82 34.777 81.132 77.745 81.132zM570.014 98.225c42.969 0 77.745-36.313 77.745-81.132 0-44.78-34.816-81.132-77.745-81.132s-77.745 36.313-77.745 81.132c0 44.82 34.816 81.132 77.745 81.132zM806.085 98.225c42.929 0 77.745-36.313 77.745-81.132 0-44.78-34.816-81.132-77.745-81.132-42.969 0-77.785 36.313-77.785 81.132s34.816 81.132 77.785 81.132z" />
<glyph unicode="&#xe977;" glyph-name="plus" d="M278.994 484.125h466.013c19.977 0 36.125-16.22 36.125-36.125 0-19.977-16.148-36.125-36.125-36.125h-466.013c-19.977 0-36.125 16.148-36.125 36.125 0 19.905 16.148 36.125 36.125 36.125zM548.125 681.006v-466.013c0-19.977-16.22-36.125-36.125-36.125-19.977 0-36.125 16.148-36.125 36.125v466.013c0 19.977 16.148 36.125 36.125 36.125 19.905 0 36.125-16.148 36.125-36.125z" />
<glyph unicode="&#xe978;" glyph-name="questionmark" d="M510.191 931.053c-267.76 0-484.862-217.102-484.862-484.862s217.102-484.862 484.862-484.862c267.76 0 484.862 217.102 484.862 484.862s-217.102 484.862-484.862 484.862zM589.795 135.011h-159.208v101.314h159.208v-101.314zM730.912 504.085c-7.237-21.71-18.092-36.184-32.565-54.276-14.473-14.473-32.565-28.947-50.657-39.802s-43.42-21.71-68.749-32.565v-90.459h-137.498v133.88c18.092 3.618 36.184 10.855 50.657 14.473s32.565 14.473 47.039 25.329c14.473 10.855 28.947 21.71 36.184 36.184s14.473 28.947 14.473 47.039c0 25.329-7.237 43.42-25.329 57.894-18.092 10.855-39.802 18.092-72.367 18.092-18.092 0-39.802-3.618-65.131-10.855s-47.039-18.092-65.131-32.565h-14.473v119.406c18.092 7.237 43.42 14.473 75.986 21.71s68.749 10.855 104.933 10.855c65.131 0 115.788-14.473 155.59-43.42 36.184-28.947 57.894-65.131 57.894-112.17 0-21.71-3.618-47.039-10.855-68.749z" />
<glyph unicode="&#xe979;" glyph-name="reject" d="M83.782-50.036c-18.618 0-37.236 4.655-51.2 18.618-27.927 27.927-27.927 69.818 0 97.745l856.436 856.436c27.927 27.927 69.818 27.927 97.745 0s27.927-69.818 0-97.745l-856.436-851.782c-13.964-13.964-27.927-23.273-46.545-23.273zM935.564-50.036c-18.618 0-37.236 4.655-51.2 18.618l-851.782 856.436c-27.927 27.927-27.927 69.818 0 97.745s69.818 27.927 97.745 0l856.436-856.436c27.927-27.927 27.927-69.818 0-97.745-13.964-9.309-32.582-18.618-51.2-18.618z" />
<glyph unicode="&#xe97a;" glyph-name="remove" d="M512 960c-282.624 0-512-229.376-512-512s229.376-512 512-512 512 229.376 512 512c0 282.624-229.376 512-512 512zM788.48 215.552c12.288-12.288 12.288-31.744 0-44.032s-31.744-12.288-44.032 0l-232.448 232.448-232.448-232.448c-12.288-12.288-31.744-12.288-44.032 0s-12.288 31.744 0 44.032l232.448 232.448-232.448 232.448c-12.288 12.288-12.288 31.744 0 44.032s31.744 12.288 44.032 0l232.448-232.448 232.448 232.448c12.288 12.288 31.744 12.288 44.032 0s12.288-31.744 0-44.032l-232.448-232.448 232.448-232.448z" />
<glyph unicode="&#xe97b;" glyph-name="save" d="M514.688 960c-282.752 0-512-229.248-512-512s229.248-512 512-512 512 229.248 512 512-229.248 512-512 512zM514.688 0c-247.040 0-448 201.024-448 448 0 247.040 200.96 448 448 448s448-200.96 448-448c0-246.976-201.088-448-448-448zM738.944 651.648c-20.672 13.568-48.448 7.744-62.016-12.992l-216.064-330.176-103.296 95.616c-18.176 16.768-46.528 15.68-63.36-2.496s-15.68-46.464 2.496-63.296l142.784-132.032 1.664-1.088 3.392-3.456 6.144-2.368 7.36-3.008 7.488-1.152 10.752 0.128 4.352 1.024 12.544 5.248 1.984 1.408 7.68 5.568 3.584 5.888 0.192 0.256 245.248 374.784c13.568 20.8 7.744 48.576-12.928 62.144z" />
<glyph unicode="&#xe97c;" glyph-name="search" d="M853.323 192.011l-21.344-21.344-106.645 106.656-42.656-42.656 106.656-106.645-21.344-21.344 170.677-170.677 85.333 85.333zM490.667 757.333c158.816 0 287.989-129.195 287.989-287.989 0-158.805-129.173-288-287.989-288-158.805 0-288 129.195-288 288 0 158.795 129.195 287.989 288 287.989zM490.667 832c-200.288 0-362.667-162.379-362.667-362.656 0-200.299 162.379-362.667 362.667-362.667s362.656 162.368 362.656 362.667c0 200.277-162.368 362.656-362.656 362.656v0z" />
<glyph unicode="&#xe97d;" glyph-name="star" d="M512 822.154l94.523-287.508h299.323l-244.185-173.292 94.523-287.508-244.185 177.231-244.185-177.231 94.523 287.508-244.185 173.292h299.323z" />
<glyph unicode="&#xe97e;" glyph-name="telenor" horiz-adv-x="791" d="M645.56 814.287c-43.572-4.137-130.069-30.513-178.554-85.592-41.115-46.933-55.984-115.2-59.216-134.206-18.877 2.457-90.505 9.051-173.64-17.325-78.998-24.695-157.996-74.085-198.335-121.018-14.998-17.196-58.57-78.093-20.687-132.396 12.283-18.101 30.513-28.832 52.622-30.513 34.521-3.232 70.853 14.869 90.505 33.745 20.558 19.782 30.513 33.745 55.984 66.715l35.426 46.158c40.339 51.071 100.461 96.323 136.663 123.475 7.37 5.818 13.964 10.731 19.782 14.869-0.776-13.964-1.681-39.564-1.681-69.172 0-36.202 1.681-79.903 6.594-116.881 9.051-60.121 40.339-156.444 82.36-216.436 38.659-55.208 107.83-107.055 168.727-90.505 40.339 11.507 53.527 60.121 53.527 110.287 0 25.471-3.232 51.846-8.275 72.404-15.644 65.81-74.861 158.901-144.032 227.168-67.491 66.715-119.337 89.729-139.895 96.323 43.572 30.513 160.453 60.897 210.747 73.309l2.457 0.776 3.232 0.776c99.556 21.463 151.402 51.071 151.402 84.816 0 1.681 0 4.137-0.776 5.818-12.412 66.457-131.749 58.311-144.937 57.406z" />
<glyph unicode="&#xe97f;" glyph-name="thumb_down" d="M0 878.2v-525.8h267.2v525.8h-267.2zM193 426.4h-118.6v377.6h118.6v-377.6zM133.4 451.2c-16.6 0-30.2 13.4-30.2 30.2 0 16.6 13.6 30.2 30.2 30.2s28.2-13.4 28.2-30.2c0-16.8-11.6-30.2-28.2-30.2zM1020.4 338.8c-17.4 162.6-52 356-75.4 444.2-33.8 126.6-125 160.2-256.8 145.4-61-6.8-104.2-25.4-146.2-43.4-78.4-33.6-131.4-43.4-212.8-46v-73.2c203.6 2.2 242.8 76.8 367.2 90.8 82.8 9.4 171.2-1.4 182.8-83.8l-38 12.6c-32.2 9.8-46.6-38.8-14.6-48.4l35.8-12.2c34.8-10.6 36.2-24.2 42.6-72.2l-45 14.6c-32 9.6-47-38.6-14.6-48.4l36.6-11.2c36-10.8 36.6-20 44.8-73l-47.8 14c-32.2 9.8-46.6-38.8-14.6-48.4l46.2-12.2c30.8-8.8 32.8-28.6 35.6-70.2-123.4 15.4-232-28.6-278.2-62 46.2-137.4 58.2-303.6 7.4-319-40.6-12.2-45.6 52.8-60.4 100.4-35.4 112.8-131.2 265.6-286 315.6v-80.8c88.2-36.2 174.4-110 222.2-274.2 19.6-67 39.2-134.2 114.6-134.2 139.4 0 121.6 223.2 88.8 355.6 86.2 36 198.2 36.4 265.8 19.6z" />
<glyph unicode="&#xe980;" glyph-name="thumb_up" d="M267.2 17v525.8h-267.2v-525.8h267.2zM193 91h-118.6v377.8h118.6v-377.8zM161.6 413.8c0-16.6-11.6-30.2-28.2-30.2s-30.2 13.4-30.2 30.2c0 16.6 13.6 30.2 30.2 30.2s28.2-13.6 28.2-30.2zM754.8 576c32.8 132.4 50.6 355.6-88.8 355.6-75.2 0-95-67.2-114.6-134.2-47.8-164.2-134-238-222.2-274.2v-81.2c154.8 50 250.6 202.8 286 315.6 14.8 47.4 19.8 112.6 60.4 100.4 50.8-15.4 38.8-181.4-7.4-319 46.2-33.4 154.8-77.2 278.2-62-2.8-41.6-4.8-61.4-35.6-70.2l-46.2-12.2c-32-9.6-17.6-58 14.6-48.4l47.8 14c-8-53-8.8-62.2-44.8-73l-36.6-11.2c-32.4-9.8-17.2-58 14.6-48.4l45 14.6c-6.4-47.8-7.8-61.6-42.6-72.2l-35.8-12.2c-32-9.6-17.6-58 14.6-48.4l38 12.6c-11.8-82.4-100.2-93.2-182.8-83.8-124.4 14-163.6 88.6-367.2 91v-73.2c81.4-2.8 134.4-12.4 212.8-46 42-18 85.2-36.6 146.4-43.4 131.8-14.8 223 18.8 256.8 145.4 23.4 88.2 58.2 281.6 75.4 444.2-68-16.6-180-16.2-266 19.8z" />
<glyph unicode="&#xe981;" glyph-name="wheel" d="M1023.96 379.079v137.922l-74.533 26.486c-28.384 10.094-51.277 31.775-62.864 59.634v0.040c-11.588 27.899-10.74 59.433 2.221 86.767l33.915 71.384-97.466 97.466-71.384-33.915c-27.294-12.96-58.827-13.808-86.726-2.221v0c-27.899 11.547-49.621 34.4-59.715 62.864l-26.446 74.493h-137.882l-26.486-74.493c-10.134-28.384-31.816-51.317-59.715-62.864v0c-27.94-11.588-59.473-10.74-86.807 2.221l-71.424 33.915-97.426-97.466 33.915-71.384c13.001-27.294 13.808-58.867 2.221-86.767v-0.040c-11.507-27.819-34.4-49.541-62.864-59.634l-74.493-26.486v-137.922l74.493-26.486c28.424-10.094 51.317-31.775 62.864-59.634 0 0 0 0 0-0.081 11.588-27.899 10.821-59.473-2.221-86.726l-33.915-71.464 97.466-97.466 71.424 33.996c27.294 12.92 58.867 13.728 86.767 2.221v0c27.859-11.588 49.541-34.4 59.715-62.864l26.486-74.614h137.882l26.325 74.048c10.175 28.707 32.098 51.802 60.159 63.47 0 0 0 0 0.081 0 27.617 11.507 58.827 10.74 85.878-2.14l71.828-34.158 97.466 97.466-33.915 71.464c-12.92 27.294-13.808 58.827-2.221 86.726v0c11.668 27.899 34.481 49.621 62.945 59.715l74.452 26.527zM512 240.39c-114.666 0-207.651 92.984-207.651 207.61 0 114.666 92.984 207.691 207.651 207.691 114.706 0 207.691-93.025 207.691-207.691-0.040-114.666-93.025-207.61-207.691-207.61z" />
</font>
</defs>
</svg>
